<svg xmlns="http://www.w3.org/2000/svg" width="512" height="512"><path d="M256 222.404c-12.35 0-22.397 10.048-22.397 22.397 0 3.708.927 7.384 2.689 10.644l18.483 33.43a1.398 1.398 0 0 0 2.45 0l18.49-33.44a22.437 22.437 0 0 0 2.683-10.634c0-12.35-10.048-22.397-22.398-22.397zM256 256c-6.175 0-11.199-5.024-11.199-11.199 0-6.174 5.024-11.198 11.2-11.198s11.198 5.024 11.198 11.198c0 6.175-5.024 11.2-11.199 11.2z" data-original="#000000" class="active-path" data-old_color="#000000" fill="#FB9902"/></svg>