<?xml version="1.0" encoding="utf-8"?>
<!-- Generator: Adobe Illustrator 21.1.0, SVG Export Plug-In . SVG Version: 6.00 Build 0)  -->
<svg version="1.0" id="Camada_1" xmlns="http://www.w3.org/2000/svg" xmlns:xlink="http://www.w3.org/1999/xlink" x="0px" y="0px"
	 viewBox="0 0 1812 1104.7" enable-background="new 0 0 1812 1104.7" xml:space="preserve">
<g>
	
		<linearGradient id="SVGID_1_" gradientUnits="userSpaceOnUse" x1="901.7001" y1="2752" x2="901.7" y2="2010.2001" gradientTransform="matrix(1 0 0 -1 0 2768)">
		<stop  offset="0" style="stop-color:#4C5B96"/>
		<stop  offset="6.865692e-02" style="stop-color:#44538B"/>
		<stop  offset="0.2678" style="stop-color:#314373"/>
		<stop  offset="0.4797" style="stop-color:#243A64"/>
		<stop  offset="0.7114" style="stop-color:#1C355C"/>
		<stop  offset="1" style="stop-color:#19345A"/>
	</linearGradient>
	<ellipse fill="url(#SVGID_1_)" cx="901.7" cy="386.9" rx="370.9" ry="370.9"/>
	<path fill="#3A5086" d="M537.4,317.1h263.1V200.5H581.1C560.5,236,545.4,275.2,537.4,317.1z"/>
	<path fill="#3A5086" d="M1266,456.8H997v116.6h225.1C1242.9,537.9,1258,498.6,1266,456.8z"/>
	<path fill="#88C4E2" d="M537.4,317.1h263.1V200.5H581.1C560.5,236,545.4,275.2,537.4,317.1z"/>
	<g>
		<g>
			<defs>
				<path id="SVGID_2_" d="M537.4,317.1h263.1V200.5H581.1C560.5,236,545.4,275.2,537.4,317.1z"/>
			</defs>
			<clipPath id="SVGID_3_">
				<use xlink:href="#SVGID_2_"  overflow="visible"/>
			</clipPath>
		</g>
	</g>
	<path fill="#88C4E2" d="M1266,456.8H997v116.6h225.1C1242.9,537.9,1258,498.6,1266,456.8z"/>
	<g>
		<g>
			<defs>
				<path id="SVGID_4_" d="M1266,456.8H997v116.6h225.1C1242.9,537.9,1258,498.6,1266,456.8z"/>
			</defs>
			<clipPath id="SVGID_5_">
				<use xlink:href="#SVGID_4_"  overflow="visible"/>
			</clipPath>
		</g>
	</g>
	<path fill="#FFFFFF" d="M1032.1,498.8l-64.8-107.2l-72.6-125.9c0,0-36.3-65.4-102.8-65.4H657.6c24.8,0,78.3,25.7,105.1,74.7
		L827,382.2l72.4,125.9c0,0,34,61.1,96.6,65.2c-0.9,0-2.1,0.2-3,0.2h9.8l0,0H1138C1113.2,573.5,1059.2,547.8,1032.1,498.8z"/>
	<g>
		<g>
			<defs>
				<path id="SVGID_6_" d="M1035.9,498.8l-64.8-107.2l-72.6-125.9c0,0-36.3-65.4-102.8-65.4H661.4c24.8,0,78.3,25.7,105.1,74.7
					l64.3,107.2l72.4,125.9c0,0,34,61.1,96.6,65.2c-0.9,0-2.1,0.2-3,0.2h9.8l0,0h135.2C1117,573.5,1063,547.8,1035.9,498.8z"/>
			</defs>
			<clipPath id="SVGID_7_">
				<use xlink:href="#SVGID_6_"  overflow="visible"/>
			</clipPath>
		</g>
	</g>
	<path fill="#FFFFFF" d="M919.1,265.9l17,29.5l178.5-0.2l-15.9-42.7c0,0-17.4-52-70.7-52H848.4C891.1,214.1,919.1,265.9,919.1,265.9
		z"/>
	<g>
		<g>
			<defs>
				<path id="SVGID_8_" d="M919.1,265.9l17,29.5l178.5-0.2l-15.9-42.7c0,0-17.4-52-70.7-52H848.4
					C891.1,214.1,919.1,265.9,919.1,265.9z"/>
			</defs>
			<clipPath id="SVGID_9_">
				<use xlink:href="#SVGID_8_"  overflow="visible"/>
			</clipPath>
		</g>
	</g>
</g>
<polygon fill="#FFFFFF" points="34,841.4 7,841.4 7,1011.7 105.5,1011.7 105.5,986.9 34,986.9 "/>
<path fill="#FFFFFF" d="M217.8,961.4c0,19.4-10.5,28-34.2,28c-23.7,0-34.2-8.6-34.2-28v-120h-27v121.3c0,19.2,7.9,51.6,61.2,51.6
	s61.2-32.3,61.2-51.6V841.4h-27L217.8,961.4L217.8,961.4z"/>
<path fill="#FFFFFF" d="M339.5,841.4H279v170.4h60.5c46.1,0,55.8-27.2,55.8-50.1v-70.2C395.3,868.6,385.6,841.4,339.5,841.4
	L339.5,841.4z M306,866.2L306,866.2h32.7c24.6,0,29.4,10.2,29.4,26.8v67.2c0,16.5-4.9,26.8-29.4,26.8H306V866.2z"/>
<path fill="#FFFFFF" d="M484.5,839c-39.1,0-62.5,19.8-62.5,52.8v69.7c0,33.1,23.3,52.8,62.5,52.8c39.1,0,62.5-19.8,62.5-52.8v-69.7
	C546.9,858.6,523.5,839,484.5,839L484.5,839z M449.1,892.3L449.1,892.3c0-19,11.9-28.7,35.4-28.7c23.5,0,35.4,9.7,35.4,28.7v68.7
	c0,19-11.9,28.7-35.4,28.7c-23.5,0-35.4-9.7-35.4-28.7V892.3z"/>
<polygon fill="#FFFFFF" points="630.5,981 584.4,841.4 557.8,841.4 614.1,1011.7 646.9,1011.7 703.2,841.4 676.6,841.4 "/>
<rect x="722.2" y="841.4" fill="#FFFFFF" width="27" height="170.4"/>
<path fill="#FFFFFF" d="M842.2,864c9.3,0,25.4,1.2,38.1,3.4l3,0.5l2.9-23.9l-2.6-0.6c-11.7-2.7-28.9-4.5-42.2-4.5
	c-39.9,0-59.3,16.8-59.3,51.3v72.6c0,34.5,19.4,51.3,59.3,51.3c13.2,0,30.5-1.9,42.2-4.5l2.6-0.6l-2.9-23.9l-3,0.5
	c-12.7,2.2-28.7,3.4-38.1,3.4c-25.5,0-32.9-6.1-32.9-27.5v-70.2C809.3,870.2,816.7,864,842.2,864z"/>
<path fill="#FFFFFF" d="M967.7,839c-39.1,0-62.5,19.8-62.5,52.8v69.7c0,33.1,23.3,52.8,62.5,52.8c39.1,0,62.5-19.8,62.5-52.8v-69.7
	C1030.1,858.6,1006.8,839,967.7,839L967.7,839z M932.4,892.3L932.4,892.3c0-19,11.9-28.7,35.4-28.7s35.4,9.7,35.4,28.7v68.7
	c0,19-11.9,28.7-35.4,28.7s-35.4-9.7-35.4-28.7V892.3z"/>
<polygon fill="#FFFFFF" points="1098.2,866.2 1147.4,866.2 1147.4,1011.7 1174.4,1011.7 1174.4,866.2 1223.5,866.2 1223.5,841.4 
	1098.2,841.4 "/>
<path fill="#FFFFFF" d="M1297.3,839c-39.1,0-62.5,19.8-62.5,52.8v69.7c0,33.1,23.3,52.8,62.5,52.8c39.1,0,62.5-19.8,62.5-52.8v-69.7
	C1359.7,858.6,1336.4,839,1297.3,839L1297.3,839z M1261.9,892.3L1261.9,892.3c0-19,11.9-28.7,35.4-28.7s35.4,9.7,35.4,28.7v68.7
	c0,19-11.9,28.7-35.4,28.7s-35.4-9.7-35.4-28.7V892.3z"/>
<polygon fill="#FFFFFF" points="1500.5,863.4 1500.5,841.4 1388,841.4 1388,865.5 1468.7,865.5 1386.5,989.7 1386.5,1011.7 
	1502.3,1011.7 1502.3,987.6 1418,987.6 "/>
<polygon fill="#FFFFFF" points="1643,863.4 1643,841.4 1530.6,841.4 1530.6,865.5 1611.3,865.5 1529.1,989.7 1529.1,1011.7 
	1644.8,1011.7 1644.8,987.6 1560.5,987.6 "/>
<path fill="#FFFFFF" d="M1731.5,839c-39.1,0-62.5,19.8-62.5,52.8v69.7c0,33.1,23.3,52.8,62.5,52.8c39.1,0,62.5-19.8,62.5-52.8v-69.7
	C1794,858.6,1770.7,839,1731.5,839L1731.5,839z M1696.1,892.3L1696.1,892.3c0-19,11.9-28.7,35.4-28.7c23.5,0,35.4,9.7,35.4,28.7
	v68.7c0,19-11.9,28.7-35.4,28.7s-35.4-9.7-35.4-28.7V892.3z"/>
<path fill="#FFFFFF" d="M406.2,1056.1c11.9,0,15.6,6.2,15.6,14v20.7c0,7.7-3.7,14-15.6,14h-17v-48.7H406.2L406.2,1056.1z
	 M395.5,1099.1L395.5,1099.1H406c7.4,0,9.5-3,9.5-8.7v-19.8c0-5.7-2.2-8.7-9.5-8.7h-10.5V1099.1z"/>
<rect x="441.3" y="1056.1" fill="#FFFFFF" width="6.3" height="48.6"/>
<path fill="#FFFFFF" d="M481.3,1105.4c-4.6,0-10.3-0.9-14.4-2.6l1-5.1c4.4,1.4,9.1,2.1,13.5,2.1c7.8,0,9.4-2,9.4-7.6
	c0-6.6-0.1-7.1-10.1-9.4c-11.7-2.6-13.2-4.9-13.2-14.9c0-8.5,3.5-12.5,15.6-12.5c4.3,0,9.3,0.6,13.2,1.6l-0.5,5.3
	c-3.8-0.9-8.5-1.4-12.5-1.4c-7.9,0-9.4,1.6-9.4,7.2c0,6.7,0,7,9.6,9.4c12.9,3.2,13.6,5.1,13.6,14.6
	C497.1,1100.6,494.6,1105.4,481.3,1105.4z"/>
<polygon fill="#FFFFFF" points="526,1061.7 511.5,1061.7 511.5,1056.1 546.9,1056.1 546.9,1061.7 532.3,1061.7 532.3,1104.7 
	526,1104.7 "/>
<path fill="#FFFFFF" d="M580.8,1087.2h-11.9v17.6h-6.3v-48.7h18.5c10.4,0,14.1,4.5,14.1,12v7c0,5.8-2.1,9.7-7.7,11.3l12.6,18.3h-7.2
	L580.8,1087.2L580.8,1087.2z M581,1061.7L581,1061.7h-12v19.8h12c6,0,8-1.7,8-6.4v-7C589,1063.3,587,1061.7,581,1061.7z"/>
<rect x="617.4" y="1056.1" fill="#FFFFFF" width="6.3" height="48.6"/>
<path fill="#FFFFFF" d="M644.7,1104.7v-48.6h18.8c7.7,0,11.5,3.5,11.5,9.9v5.6c0,3.7-1.2,6.5-5.5,8.1c4.3,0.7,7.1,3.6,7.1,8.7v5.9
	c0,6.8-4.7,10.4-12,10.4H644.7L644.7,1104.7z M668.7,1066.2L668.7,1066.2c0-3.1-1.8-4.6-5.5-4.6H651v15.7h11.1
	c4.7,0,6.6-2.2,6.6-5.7L668.7,1066.2L668.7,1066.2z M670.3,1088.7L670.3,1088.7c0-3.8-2.2-6-7-6h-12.3v16.6h12.6
	c4.4,0,6.7-1.9,6.7-5.5L670.3,1088.7L670.3,1088.7z"/>
<path fill="#FFFFFF" d="M728.6,1056.1v35c0,7.9-4.6,14.4-17.2,14.4c-12.6,0-17.3-6.4-17.3-14.4v-35h6.3v34.6c0,6,3.3,9.1,10.9,9.1
	c7.7,0,10.9-3.1,10.9-9.1v-34.6H728.6z"/>
<rect x="749.3" y="1056.1" fill="#FFFFFF" width="6.3" height="48.6"/>
<path fill="#FFFFFF" d="M793.6,1056.1c11.9,0,15.6,6.2,15.6,14v20.7c0,7.7-3.7,14-15.6,14h-17v-48.7H793.6L793.6,1056.1z
	 M782.8,1099.1L782.8,1099.1h10.5c7.4,0,9.5-3,9.5-8.7v-19.8c0-5.7-2.2-8.7-9.5-8.7h-10.5V1099.1z"/>
<path fill="#FFFFFF" d="M862.4,1090.7c0,8.1-5.1,14.8-17.6,14.8c-12.5,0-17.6-6.7-17.6-14.8v-20.6c0-8.1,5.1-14.8,17.6-14.8
	c12.5,0,17.6,6.7,17.6,14.8V1090.7L862.4,1090.7z M833.5,1090.6L833.5,1090.6c0,6,3.6,9.3,11.3,9.3s11.3-3.4,11.3-9.3v-20.3
	c0-6-3.6-9.3-11.3-9.3s-11.3,3.4-11.3,9.3V1090.6z"/>
<path fill="#FFFFFF" d="M900.1,1087.2h-11.9v17.6h-6.3v-48.7h18.5c10.4,0,14.1,4.5,14.1,12v7c0,5.8-2.1,9.7-7.7,11.3l12.6,18.3h-7.2
	L900.1,1087.2L900.1,1087.2z M900.2,1061.7L900.2,1061.7h-12v19.8h12c6,0,8-1.7,8-6.4v-7C908.2,1063.3,906.2,1061.7,900.2,1061.7z"
	/>
<path fill="#FFFFFF" d="M997.3,1104.7H991l-4-11.7h-20.6l-3.9,11.7h-6.3l16.4-48.6h8.5L997.3,1104.7L997.3,1104.7z M976.7,1060.7
	L976.7,1060.7l-8.7,27h17.3L976.7,1060.7z"/>
<polygon fill="#FFFFFF" points="1019.5,1061.7 1005,1061.7 1005,1056.1 1040.4,1056.1 1040.4,1061.7 1025.8,1061.7 1025.8,1104.7 
	1019.5,1104.7 "/>
<path fill="#FFFFFF" d="M1089.4,1104.7h-6.3l-4-11.7h-20.6l-3.9,11.7h-6.3l16.4-48.6h8.5L1089.4,1104.7L1089.4,1104.7z
	 M1068.6,1060.7L1068.6,1060.7l-8.7,27h17.3L1068.6,1060.7z"/>
<path fill="#FFFFFF" d="M1110.5,1090.8c0,6.8,2.6,9,10.6,9c2.9,0,7.7-0.4,11.4-1l0.6,5.4c-3.5,0.8-8.6,1.3-12.3,1.3
	c-11.9,0-16.6-5.1-16.6-14.3v-21.4c0-9.2,4.7-14.3,16.6-14.3c3.6,0,8.7,0.5,12.3,1.3l-0.6,5.4c-3.7-0.6-8.5-1-11.4-1
	c-7.9,0-10.6,2.2-10.6,9V1090.8z"/>
<path fill="#FFFFFF" d="M1189.2,1104.7h-6.3l-4-11.7h-20.6l-3.9,11.7h-6.3l16.4-48.6h8.5L1189.2,1104.7L1189.2,1104.7z
	 M1168.6,1060.7L1168.6,1060.7l-8.7,27h17.3L1168.6,1060.7z"/>
<path fill="#FFFFFF" d="M1222.7,1056.1c11.9,0,15.7,6.2,15.7,14v20.7c0,7.7-3.7,14-15.7,14h-17v-48.7H1222.7L1222.7,1056.1z
	 M1211.9,1099.1L1211.9,1099.1h10.5c7.4,0,9.5-3,9.5-8.7v-19.8c0-5.7-2.2-8.7-9.5-8.7h-10.5V1099.1z"/>
<rect x="1257.8" y="1056.1" fill="#FFFFFF" width="6.3" height="48.6"/>
<path fill="#FFFFFF" d="M1297.7,1105.4c-4.6,0-10.3-0.9-14.4-2.6l1-5.1c4.4,1.4,9.2,2.1,13.6,2.1c7.8,0,9.4-2,9.4-7.6
	c0-6.6-0.1-7.1-10.1-9.4c-11.7-2.6-13.2-4.9-13.2-14.9c0-8.5,3.5-12.5,15.6-12.5c4.3,0,9.3,0.6,13.2,1.6l-0.5,5.3
	c-3.8-0.9-8.5-1.4-12.5-1.4c-7.9,0-9.4,1.6-9.4,7.2c0,6.7,0,7,9.6,9.4c12.9,3.2,13.6,5.1,13.6,14.6
	C1313.5,1100.6,1311,1105.4,1297.7,1105.4z"/>
<polygon fill="#FFFFFF" points="1342.5,1061.7 1328,1061.7 1328,1056.1 1363.2,1056.1 1363.2,1061.7 1348.7,1061.7 1348.7,1104.7 
	1342.5,1104.7 "/>
<path fill="#FFFFFF" d="M1412.2,1104.7h-6.3l-4-11.7h-20.6l-3.9,11.7h-6.3l16.4-48.6h8.5L1412.2,1104.7L1412.2,1104.7z
	 M1391.6,1060.7L1391.6,1060.7l-8.7,27h17.3L1391.6,1060.7z"/>
</svg>
