<?xml version="1.0" encoding="UTF-8"?>
<!DOCTYPE svg PUBLIC "-//W3C//DTD SVG 1.1//EN" "http://www.w3.org/Graphics/SVG/1.1/DTD/svg11.dtd">
<!-- Creator: CorelDRAW 2018 (64 Bit Versão de avaliação) -->
<svg xmlns="http://www.w3.org/2000/svg" xml:space="preserve" width="151.695mm" height="37.116mm" version="1.1" style="shape-rendering:geometricPrecision; text-rendering:geometricPrecision; image-rendering:optimizeQuality; fill-rule:evenodd; clip-rule:evenodd"
viewBox="0 0 24491.49 5992.48"
 xmlns:xlink="http://www.w3.org/1999/xlink">
 <defs>
  <style type="text/css">
   <![CDATA[
    .fil0 {fill:#C5C5C5;fill-rule:nonzero}
    .fil1 {fill:#FF9800;fill-rule:nonzero}
   ]]>
  </style>
 </defs>
 <g id="Camada_x0020_1">
  <metadata id="CorelCorpID_0Corel-Layer"/>
  <g id="_1553597175232">
   <path class="fil0" d="M1575.04 5738.56c26.43,0 51.39,-5.12 75.08,-15.4 23.67,-10.28 44.32,-24.23 62.06,-41.78 17.84,-17.66 31.84,-38.23 42.14,-61.84 10.27,-23.69 15.34,-49.05 15.34,-76.21 0,-27.5 -5.07,-53.12 -15.34,-76.96 -10.3,-23.78 -24.3,-44.43 -42.14,-61.87 -17.74,-17.37 -38.39,-31.14 -62.06,-41.2 -23.69,-10.11 -48.65,-15.11 -75.08,-15.11 -26.75,0 -52.07,5.01 -75.85,15.11 -23.78,10.06 -44.53,23.83 -62.13,41.2 -17.6,17.44 -31.53,38.09 -41.77,61.87 -10.3,23.85 -15.42,49.47 -15.42,76.96 0,27.16 5.12,52.52 15.42,76.21 10.24,23.6 24.17,44.17 41.77,61.84 17.6,17.55 38.35,31.5 62.13,41.78 23.78,10.28 49.1,15.4 75.85,15.4zm0 73.06c-37.33,0 -72.46,-7.04 -105.3,-21.15 -32.74,-14.11 -61.24,-33.29 -85.47,-57.75 -24.19,-24.35 -43.3,-52.75 -57.41,-85.2 -14.11,-32.39 -21.2,-67.13 -21.2,-104.19 0,-37.38 7.09,-72.36 21.2,-104.98 14.11,-32.61 33.29,-61.01 57.69,-85.17 24.41,-24.25 52.92,-43.32 85.47,-57.27 32.68,-13.93 67.7,-20.91 105.02,-20.91 37,0 71.77,6.97 104.2,20.91 32.45,13.95 60.79,33.02 84.97,57.27 24.15,24.15 43.33,52.55 57.46,85.17 14.09,32.61 21.13,67.6 21.13,104.98 0,37.05 -7.04,71.8 -21.13,104.19 -14.13,32.45 -33.31,60.85 -57.46,85.2 -24.19,24.46 -52.52,43.64 -84.97,57.75 -32.44,14.11 -67.2,21.15 -104.2,21.15z"/>
   <path class="fil0" d="M1992.91 5244.71c0,9.9 -3.49,18.49 -10.51,25.57 -6.93,7.14 -15.74,10.74 -26.32,10.74 -9.88,0 -18.45,-3.6 -25.59,-10.74 -7.14,-7.09 -10.74,-15.68 -10.74,-25.57 0,-13.51 -2.58,-26.16 -7.64,-37.91 -5.18,-11.75 -12.09,-21.72 -20.97,-29.97 -8.78,-8.27 -19.02,-14.74 -30.71,-19.5 -11.75,-4.78 -24.01,-7.15 -36.89,-7.15l-286.42 0 0 51.16c0,10.24 -3.49,18.89 -10.46,26.09 -6.97,7.15 -15.74,10.69 -26.38,10.69 -9.95,0 -18.44,-3.54 -25.57,-10.69 -7.14,-7.2 -10.74,-15.85 -10.74,-26.09l0 -51.16 -187.46 0c-22.78,-0.39 -44.04,-5.05 -64.05,-14.05 -19.97,-8.94 -37.44,-21.04 -52.46,-36.28 -15.06,-15.24 -26.99,-32.9 -35.78,-53.09 -8.82,-20.05 -13.21,-41.54 -13.21,-64.26 0,-10.62 3.55,-19.57 10.62,-26.72 7.15,-7.14 15.94,-10.67 26.49,-10.67 9.83,0 18.26,3.54 25.36,10.67 7.14,7.15 10.62,16.1 10.62,26.72 0,13.14 2.47,25.48 7.41,36.81 5.01,11.37 11.71,21.26 20.13,29.71 8.49,8.43 18.39,15.11 29.74,20.02 11.41,4.94 23.33,7.69 35.83,8.02l186.74 0 0 -82.49c0,-10.67 3.6,-19.5 10.74,-26.69 7.14,-7.1 15.63,-10.7 25.57,-10.7 10.64,0 19.41,3.6 26.38,10.7 6.97,7.18 10.46,16.02 10.46,26.69l0 82.49 286.42 0c23.07,0 44.93,4.29 65.4,12.95 20.57,8.54 38.52,20.46 53.86,35.7 15.47,15.18 27.61,33.02 36.67,53.3 8.94,20.36 13.43,42.24 13.43,65.7z"/>
   <path class="fil0" d="M2595.93 5691.13c16.53,0 33.07,-3.08 49.37,-9.33 16.31,-6.25 30.98,-15.24 44.03,-27.16 13.05,-11.87 23.56,-25.99 31.6,-42.22 7.98,-16.31 12.03,-34.92 12.03,-55.69 0,-20.13 -3.94,-37.94 -11.56,-53.36 -7.72,-15.4 -17.95,-28.45 -30.72,-39.14 -12.75,-10.67 -27.5,-18.83 -44.06,-24.51 -16.6,-5.62 -33.81,-8.72 -51.63,-9.33l-175.26 0c-33.79,0 -65.4,-6.46 -94.74,-19.52 -29.42,-13.03 -54.76,-30.69 -76.08,-52.84 -21.38,-22.22 -38.2,-47.97 -50.28,-77.26 -12.14,-29.37 -18.28,-60.58 -18.28,-93.67 0,-32.57 6.25,-63.11 18.68,-91.5 12.48,-28.45 29.51,-53.3 51.21,-74.62 21.59,-21.31 47.02,-38.22 76.08,-50.65 29.01,-12.43 60.11,-18.62 93.4,-18.62l324.76 0c16.66,0 30.71,4.96 42.35,14.97 11.48,10.01 17.31,24.17 17.31,42.4 0,18.89 -5.83,33.79 -17.31,44.64 -11.64,10.85 -25.69,16.31 -42.35,16.31l-325.62 0c-17.26,0 -33.11,3.42 -47.66,10.28 -14.53,6.8 -27.12,15.74 -37.8,26.77 -10.69,11.01 -19.13,23.83 -25.36,38.33 -6.18,14.68 -9.33,29.76 -9.33,45.16 0,16.71 3.15,32.27 9.33,46.95 6.23,14.58 14.84,27.32 25.82,38.36 10.96,11.01 23.72,19.84 38.3,26.3 14.43,6.64 30.01,9.91 46.71,9.91l185.9 0c35.04,0 67.54,6.51 97.5,19.5 29.92,12.98 56.06,30.92 78.27,53.75 22.31,22.76 39.57,49.15 52.07,79 12.48,29.97 18.66,61.8 18.66,95.55 0,33.73 -6.18,65.73 -18.66,95.92 -12.5,30.19 -29.53,56.67 -51.18,79.5 -21.68,22.85 -47.45,40.88 -77.43,54.2 -29.9,13.29 -62.39,19.97 -97.42,19.97l-387.03 0c-16.02,0 -29.29,-5.62 -39.57,-16.92 -10.41,-11.25 -15.69,-25.82 -15.69,-43.58 0,-17.21 5.28,-31.16 15.69,-41.85 10.28,-10.74 23.56,-16.02 39.57,-16.02l376.39 0z"/>
   <path class="fil0" d="M3301.26 5701.8c44.53,0 85.81,-8.27 123.88,-24.9 38.01,-16.6 70.78,-39.31 98.41,-68.1 27.66,-28.79 49.36,-62.3 65.05,-100.49 15.85,-38.28 23.67,-78.77 23.67,-121.56 0,-43.25 -7.81,-84.18 -23.67,-122.75 -15.69,-38.57 -37.39,-72.07 -65.05,-100.52 -27.62,-28.51 -60.4,-51 -98.41,-67.65 -38.07,-16.6 -79.35,-24.98 -123.88,-24.98 -43.98,0 -84.84,8.38 -122.56,24.98 -37.68,16.65 -70.59,39.14 -98.45,67.65 -27.9,28.45 -49.82,61.95 -65.99,100.52 -16.02,38.57 -23.93,79.5 -23.93,122.75 0,42.78 7.91,83.28 23.93,121.56 16.16,38.18 38.09,71.7 65.99,100.49 27.87,28.79 60.77,51.5 98.45,68.1 37.72,16.63 78.58,24.9 122.56,24.9zm0.45 118.31c-59.93,0 -115.99,-11.37 -168.17,-34.2 -52.23,-22.81 -97.61,-53.86 -136.14,-93.05 -38.57,-39.09 -69.17,-84.97 -91.64,-137.49 -22.6,-52.46 -33.86,-108.69 -33.86,-168.62 0,-60.45 11.25,-117.12 33.79,-169.93 22.49,-52.75 53.02,-98.91 91.59,-138.32 38.46,-39.46 83.84,-70.62 136.02,-93.45 52.05,-22.83 108.12,-34.26 167.94,-34.26 60.4,0 116.73,11.43 168.93,34.26 52.12,22.83 97.42,53.81 135.99,92.93 38.47,39.2 68.83,85.31 91.09,138.38 22.17,53.09 33.36,109.93 33.36,170.38l0 365.77c0,17.19 -5.91,31.71 -17.71,43.58 -11.75,11.87 -26.2,17.82 -43.25,17.82 -17.7,0 -31.64,-5.96 -41.99,-17.82 -10.3,-11.87 -15.4,-26.38 -15.4,-43.58l-0.9 -64.06c-39.18,40.96 -84.97,73.11 -137.48,96.5 -52.46,23.44 -109.92,35.15 -172.17,35.15z"/>
   <path class="fil0" d="M4140.96 5693.77c17.19,0 31.26,5.7 42.28,16.94 10.96,11.25 16.47,25.24 16.47,41.83 0,17.19 -5.41,31.14 -16.02,41.83 -10.74,10.69 -24.62,15.97 -41.83,15.97 -42.12,0 -80.97,-7.09 -116.63,-21.36 -35.52,-14.24 -66.41,-34.52 -92.5,-60.95 -26.14,-26.38 -46.43,-58.09 -60.95,-95.14 -14.56,-37.12 -21.81,-78.5 -21.81,-124.21l0 -805.25c0,-17.21 5.51,-31.61 16.48,-43.12 10.96,-11.64 24.73,-17.37 41.36,-17.37 16.03,0 30.09,5.73 42.24,17.37 12.16,11.51 18.28,25.91 18.28,43.12l0 803.5c0,59.27 15.24,105.27 45.82,137.91 30.55,32.57 72.83,48.92 126.8,48.92z"/>
   <path class="fil0" d="M4938.37 5340.55c-4.73,-39.14 -15.97,-75.53 -33.81,-109.03 -17.81,-33.52 -40.64,-62.53 -68.49,-87.22 -27.87,-24.56 -59.77,-43.96 -95.69,-58.25 -35.87,-14.22 -74.27,-21.36 -115.2,-21.36 -40.99,0 -79.35,7.31 -115.23,21.76 -35.92,14.56 -67.47,34.29 -94.79,59.2 -27.33,24.91 -49.53,54.15 -66.74,87.67 -17.19,33.5 -27.9,69.26 -32.06,107.22l622.01 0zm-618.4 99.63c4.71,37.34 15.85,72.27 33.4,104.54 17.42,32.39 39.86,60.54 67.13,84.55 27.27,24.02 58.24,42.87 92.93,56.52 34.74,13.66 71.41,20.46 109.93,20.46 17.82,0 33.68,-0.73 47.63,-2.24 13.95,-1.47 26.98,-3.83 39.12,-7.09 12.16,-3.26 24.02,-7.59 35.6,-12.93 11.59,-5.34 23.62,-11.53 36.05,-18.66 6.52,-4.17 12.88,-6.97 19.18,-8.44 6.18,-1.52 11.96,-2.24 17.31,-2.24 16.58,0 30.35,6.52 41.38,19.57 10.98,13.09 16.47,27.27 16.47,42.69 0,8.93 -2.24,17.7 -6.68,26.25 -4.44,8.61 -11.75,15.9 -21.81,21.81 -15.4,8.94 -30.98,16.94 -46.66,24.07 -15.82,7.07 -32.5,12.87 -50.34,17.37 -17.78,4.44 -37.05,7.81 -57.8,10.17 -20.75,2.37 -43.9,3.55 -69.44,3.55 -59.88,0 -116.29,-11.37 -169.02,-34.26 -52.86,-22.81 -98.95,-53.81 -138.36,-92.93 -39.49,-39.2 -70.64,-85.13 -93.4,-137.93 -22.89,-52.8 -34.37,-109.14 -34.37,-169.09 0,-59.93 11.48,-116.26 34.37,-169.07 22.76,-52.75 53.91,-98.91 93.4,-138.38 39.41,-39.41 85.51,-70.55 138.36,-93.38 52.73,-22.89 109.14,-34.26 169.02,-34.26 59.33,0 115.39,11.37 168.23,34.26 52.75,22.83 98.86,53.81 138.32,92.93 39.41,39.2 70.73,85.02 93.92,137.48 23.15,52.52 34.97,108.48 35.52,167.73 0,16.03 -5.23,29.53 -15.97,40.49 -10.67,10.96 -24.62,16.47 -41.82,16.47l-681.6 0z"/>
   <path class="fil1" d="M2714.26 3225c-55.83,131.81 -132.63,247.18 -230.43,346.27 -97.76,99.13 -213.04,177.23 -345.73,234.35 -132.65,57.2 -274.74,85.76 -425.99,85.76 -151.36,0 -293.39,-28.56 -426.04,-85.76 -132.75,-57.12 -248.02,-135.22 -345.8,-234.35 -97.73,-99.08 -175.11,-214.46 -232.17,-346.27 -57.07,-131.68 -85.52,-272.19 -85.52,-421.47 0,-149.18 28.45,-289.69 85.52,-421.44 57.06,-131.68 134.44,-246.55 232.17,-344.57 97.78,-97.94 213.05,-175.43 345.8,-232.56 132.65,-57.12 274.68,-85.75 426.04,-85.75 151.25,0 293.34,28.63 425.99,85.75 132.7,57.12 247.98,134.62 345.73,232.56 97.79,98.02 174.59,212.89 230.43,344.57 55.89,131.75 83.91,272.26 83.91,421.44 0,149.28 -28.01,289.79 -83.91,421.47zm459.46 243.13c-89.8,-207.53 -134.67,-429.06 -134.67,-664.6 0,-235.43 44.87,-456.98 134.67,-664.57 17.03,-39.52 36.42,-77.14 55.88,-114.76 -82.05,-160.87 -184.43,-305.32 -309.6,-431.56 -154.06,-155.41 -334.95,-278.09 -542.64,-368 -207.84,-90.03 -429.48,-134.96 -665.25,-134.96 -235.82,0 -457.52,44.93 -665.23,134.78 -207.82,89.86 -389.26,212.31 -544.47,367.51 -155.24,155.19 -277.83,336.65 -367.68,544.34 -89.85,207.64 -134.73,429.37 -134.73,665.01l0 1210.6 0 1348.24 0 344.51c21.2,177.86 179.16,302.69 341.28,286.38 141.22,-14.22 260.39,-133.1 277.07,-286.38l0 -335.45c0.06,-3.04 0.69,-5.8 0.69,-8.82l0 -1245.19c149.28,127.01 316,225.24 500.2,294.64 184.2,69.39 382.47,104.07 594.61,104.07 235.48,0 457.02,-44.98 664.57,-134.94 207.53,-89.96 388.25,-211.99 542.16,-366.22 124.92,-125.21 227.2,-269.04 309.13,-429.75 -19.52,-37.62 -38.91,-75.33 -55.99,-114.87z"/>
   <path class="fil1" d="M6325.8 349.79c0,-49.03 9.27,-94.47 27.93,-136.43 18.63,-41.99 43.69,-78.71 75.24,-110.19 31.43,-31.43 68.71,-56.51 111.89,-75.19 43.2,-18.66 89.2,-27.98 138.16,-27.98 48.98,0 94.42,9.32 136.43,27.98 41.99,18.68 79.21,43.75 111.94,75.19 32.63,31.48 58.2,68.2 76.87,110.19 18.66,41.96 28.06,87.39 28.06,136.43 0,48.97 -9.4,94.4 -28.06,136.35 -18.66,42.01 -44.24,78.72 -76.87,110.21 -32.73,31.5 -69.94,56.57 -111.94,75.19 -42.01,18.73 -87.44,28 -136.43,28 -48.95,0 -94.95,-9.27 -138.16,-28 -43.17,-18.62 -80.45,-43.69 -111.89,-75.19 -31.55,-31.48 -56.61,-68.2 -75.24,-110.21 -18.66,-41.95 -27.93,-87.38 -27.93,-136.35z"/>
   <path class="fil1" d="M6364.22 1423.56c0,-41.95 8.15,-82.15 24.51,-120.67 16.26,-38.51 39.04,-71.7 68.17,-99.7 29.17,-28 62.97,-50.15 101.49,-66.45 38.46,-16.31 79.79,-24.46 124.16,-24.46 86.25,0 157.95,30.3 215.07,90.91 57.12,60.67 85.68,134.1 85.68,220.37l0 2780.67c0,86.3 -29.74,159.18 -89.17,218.61 -59.45,59.43 -131.13,89.25 -215.09,89.25 -86.34,0 -160.35,-29.82 -222.14,-89.25 -61.8,-59.43 -92.67,-132.31 -92.67,-218.61l0 -2780.67z"/>
   <path class="fil1" d="M12893.08 3708.26c-15.22,-34.99 -36.25,-65.29 -62.97,-90.93 -26.87,-25.65 -57.19,-45.5 -90.98,-59.5 -33.79,-13.93 -68.2,-20.97 -103.17,-20.97 -81.6,0 -159.76,34.97 -234.32,104.93 -97.89,90.98 -205.79,155.69 -323.52,194.15 -117.81,38.46 -243.08,57.7 -376.02,57.7 -151.64,0 -293.21,-27.38 -424.98,-82.21 -131.73,-54.72 -246.04,-129.95 -342.81,-225.58 -96.77,-95.6 -173.13,-208.11 -229.09,-337.55 -55.94,-129.37 -83.87,-268.72 -83.87,-417.95l0 -1140.24 1388.49 0c88.62,0 162.68,-28.58 222.16,-85.7 59.5,-57.12 89.17,-127.69 89.17,-211.63 0,-86.2 -30.35,-160.27 -90.98,-222.06 -60.61,-61.79 -134.04,-92.72 -220.35,-92.72l-1388.49 0 0 -685.58c0,-44.25 -8.83,-85.7 -26.14,-124.16 -17.39,-38.46 -40.67,-71.68 -69.57,-99.7 -28.95,-27.93 -63.26,-50.1 -102.62,-66.45 -39.48,-16.26 -80.06,-24.41 -121.69,-24.41 -41.77,0 -81.23,8.15 -118.36,24.41 -37.04,16.36 -70.15,39.07 -99.12,68.26 -28.96,29.17 -51.63,62.9 -67.83,101.36 -16.24,38.47 -24.4,78.72 -24.4,120.69l0 1445.34c107.9,165.83 187.37,342.99 233.14,528.89 50.36,205.08 48.63,364.37 47.56,459.54 -3.04,264.39 -3.33,571.8 -2.53,926.37 64.5,97.79 137.7,188.5 221.25,270.53 154.46,151.57 335.4,270.51 542.93,356.71 207.55,86.34 430.27,129.44 668.11,129.44 216.81,0 417.95,-34.92 603.33,-104.93 185.4,-69.96 351.5,-174.89 498.42,-314.77 34.97,-34.97 62.35,-76.35 82.2,-124.16 19.79,-47.79 29.74,-95.01 29.74,-141.69 0,-41.95 -7.59,-80.45 -22.72,-115.42z"/>
   <path class="fil1" d="M10106.83 2143.66c-82.89,-200.51 -197.25,-375.44 -343.23,-524.67 -145.79,-149.17 -317.4,-266.96 -514.65,-353.27 -197.26,-86.2 -410.25,-129.39 -638.98,-129.39 -226.44,0 -437.75,43.19 -633.81,129.39 -196.12,86.31 -366.48,204.11 -511.16,353.27 -119.04,122.7 -215.93,263.72 -293.07,421.08 -32.39,77.84 -60.33,157 -80.24,238.19 -50.78,206.47 -47.9,370.89 -46.55,449.89 6.62,381.29 3.86,939.28 -0.74,1626.41l0 7.36c14.56,23.51 30.87,45.5 51.05,64 29.14,26.8 62.93,47.77 101.39,62.9 38.57,15.24 78.72,22.78 120.78,22.78 86.2,0 157.88,-28.56 215.05,-85.68 57.09,-57.14 85.72,-129.95 85.72,-218.62l0 -1423.59c0,-142.19 24.96,-275.75 75.22,-400.47 50.1,-124.77 119.36,-233.72 208.1,-327.09 88.51,-93.22 192.92,-166.09 312.98,-218.54 120.06,-52.46 251.22,-78.66 393.48,-78.66 142.26,0 274.05,27.38 395.28,82.15 121.23,54.81 226.78,128.87 316.51,222.09 89.8,93.34 160.24,202.3 211.7,327.02 51.23,124.77 78.05,258.32 80.42,400.52l0 6.97 0 1409.6c0,88.67 30.42,161.48 91.41,218.62 61.01,57.12 134.85,85.68 221.66,85.68 86.76,0 159.4,-28.56 217.99,-85.68 58.64,-57.14 88.01,-129.95 88.01,-218.62l0 -1406.11 0 -17.49c0,-226.15 -41.44,-439.54 -124.32,-640.05z"/>
   <path class="fil1" d="M5816.82 3223.68c-56.01,131.36 -132.86,246.41 -230.86,345.15 -97.95,98.84 -212.78,176.6 -344.46,233.56 -131.79,56.96 -274.68,85.46 -428.58,85.46 -151.52,0 -293.18,-28.5 -424.91,-85.46 -131.75,-56.96 -246.57,-134.72 -344.52,-233.56 -97.89,-98.74 -175.43,-213.8 -232.6,-345.15 -57.14,-131.28 -85.63,-271.35 -85.63,-420.12 0,-148.79 28.5,-288.81 85.63,-420.15 57.17,-131.24 134.72,-245.78 232.6,-343.35 97.95,-97.65 212.78,-174.97 344.52,-231.94 131.73,-56.9 273.39,-85.39 424.91,-85.39 153.9,0 296.78,28.5 428.58,85.39 131.68,56.98 246.51,134.3 344.46,231.94 98,97.57 174.85,212.1 230.86,343.35 55.94,131.34 83.89,271.35 83.89,420.15 0,148.76 -27.95,288.84 -83.89,420.12zm-335.79 -1995.88c-207.55,-89.69 -430.21,-134.67 -668.11,-134.67 -235.48,0 -456.41,44.98 -662.76,134.67 -206.4,89.8 -387.07,212.21 -542.16,367.29 -155.08,155.08 -277.54,336.4 -367.22,543.84 -89.78,207.6 -134.67,429.14 -134.67,664.64 0,235.53 44.88,457.01 134.67,664.54 89.69,207.61 212.15,388.28 367.22,542.11 155.09,153.9 335.76,275.79 542.16,365.55 206.35,89.8 427.28,134.67 662.76,134.67 237.9,0 460.56,-44.87 668.11,-134.67 207.48,-89.75 388.25,-211.65 542.16,-365.55 115.08,-115.1 211.92,-245.26 290.53,-390.44l0 -1632.59c-78.61,-145.36 -175.45,-276.1 -290.53,-392.09 -153.91,-155.08 -334.68,-277.49 -542.16,-367.29z"/>
   <path class="fil0" d="M16352.03 1871.83c-5.47,-32.5 -16.44,-62.56 -32.9,-90.17 -16.65,-27.79 -37.05,-51.86 -61.4,-72.31 -24.41,-20.47 -52.13,-36.38 -83.12,-47.81 -31.03,-11.41 -63.94,-17.19 -98.79,-17.19 -35.58,0 -68.65,5.89 -99.29,17.66 -30.76,11.67 -58.14,27.93 -82.15,48.74 -24.12,20.75 -43.92,44.98 -59.59,72.64 -15.76,27.67 -26.27,57.12 -31.61,88.44l548.86 0zm-544.42 133.67c6.68,30.64 18.11,59.04 34.47,85.25 16.15,26.2 35.92,48.9 59.54,68.2 23.39,19.28 49.65,34.29 78.9,45.16 29.16,10.79 60.04,16.19 92.5,16.19 31.31,0 57.23,-2.87 77.69,-8.61 20.47,-5.68 40.88,-14.56 61.4,-26.59 16.87,-9.62 32.74,-14.45 47.85,-14.45 10.85,0 20.92,2.31 30.26,6.73 9.28,4.55 17.65,10.64 24.73,18.07 7.3,7.59 13.05,16.4 17.21,26.64 4.15,10.24 6.39,20.76 6.39,31.6 0,19.23 -7.25,36.33 -21.8,51.07 -14.4,14.72 -33.86,27.2 -58.14,37.44 -24.48,10.19 -52.81,17.99 -84.91,23.51 -32.21,5.39 -65.74,8.04 -100.7,8.04 -60.8,0 -118.04,-11.53 -171.85,-34.76 -53.97,-23.15 -100.81,-54.54 -140.8,-94.29 -40.01,-39.75 -71.62,-86.31 -94.9,-139.96 -23.17,-53.52 -34.7,-110.76 -34.7,-171.54 0,-61.35 11.53,-118.76 34.7,-172.45 23.28,-53.47 54.89,-100.08 94.9,-139.83 39.99,-39.7 86.83,-71.18 140.8,-94.37 53.81,-23.1 111.05,-34.74 171.85,-34.74 60.14,0 117.12,11.48 170.66,34.31 53.63,22.88 100.36,54.2 140.38,93.88 40.04,39.78 71.75,86.22 95.19,139.46 23.57,53.31 35.6,110.03 36.15,170.2 0,21.65 -7.3,39.64 -21.63,54.1 -14.51,14.5 -33.07,21.75 -56.06,21.75l-630.1 0z"/>
   <path class="fil0" d="M17015.05 2000.09l-111.95 0 -51.37 0c-36.1,0 -69.62,-7.15 -100.26,-21.26 -30.69,-14.16 -57.23,-33.16 -79.9,-57.01 -22.6,-23.78 -40.04,-51.41 -52.8,-82.76 -12.59,-31.32 -19,-64.45 -19,-99.49 0,-34.34 6.62,-66.57 19.91,-96.69 13.32,-30.21 31.1,-56.57 53.81,-79.18 22.49,-22.65 49.08,-40.38 79.9,-53.31 30.69,-12.98 63.48,-19.5 98.34,-19.5l313.19 0c21.65,0 40.38,6.7 56.06,20.02 15.53,13.26 23.38,32.66 23.38,58.07 0,11.53 -1.91,22.28 -5.83,32.23 -3.94,9.96 -9.4,18.71 -16.19,26.3 -6.97,7.54 -14.97,13.51 -24.02,17.73 -9.04,4.21 -18.66,6.35 -28.95,6.35l-4.44 0 -312.35 0c-13.21,0 -25.36,2.65 -36.5,7.65 -11.08,5.12 -20.91,12.09 -29.34,20.8 -8.43,8.72 -15.13,18.62 -19.84,29.76 -4.89,11.19 -7.27,23.06 -7.27,35.65 0,13.9 2.37,26.53 7.27,37.94 4.71,11.43 11.51,21.2 20.28,29.37 8.77,8.09 18.66,14.61 29.8,19.39 11.3,4.83 23.17,7.25 35.71,7.25l52.52 0 129.32 0c36.7,0 70.78,7.04 102.05,21.2 31.48,14.18 58.48,33.31 81.02,57.3 22.67,24.07 40.44,52.08 53.36,83.96 13,31.87 19.41,65.34 19.41,100.26 0,35.47 -6.52,69.04 -19.41,100.59 -13.09,31.64 -31.14,59.25 -54.14,83.1 -22.96,23.78 -50.28,42.51 -82,56.41 -31.69,13.88 -65.84,20.73 -102.54,20.73l-374.67 0c-21.09,0 -38.57,-7.48 -52.34,-22.54 -13.79,-15.02 -20.75,-34.58 -20.75,-58.7 0,-24.06 6.96,-42.96 20.75,-56.85 13.77,-13.84 31.26,-20.75 52.34,-20.75l361.11 0c13.21,0 26.43,-2.29 39.77,-6.81 13.21,-4.54 25.24,-11.3 36.04,-20.29 10.79,-8.99 19.62,-19.96 26.25,-32.94 6.52,-12.95 9.96,-28.17 9.96,-45.61 0,-16.81 -3.33,-31.26 -9.51,-43.35 -6.43,-12.03 -14.85,-21.93 -25.35,-29.76 -10.59,-7.81 -22.44,-13.82 -35.62,-18.08 -13.37,-4.23 -26.87,-6.59 -40.64,-7.15l-1.74 0 -2.83 0z"/>
   <path class="fil0" d="M17391.91 1311.25c0,-10.79 2.07,-21.2 6.23,-31.14 4.28,-9.9 10.07,-18.66 17.49,-26.14 7.6,-7.54 15.97,-13.38 25.64,-17.66 9.51,-4.21 19.75,-6.3 30.55,-6.3 10.61,0 21.2,2.08 31.43,6.3 10.06,4.28 18.95,9.95 26.37,17.21 7.57,7.27 13.5,15.81 17.99,25.75 4.55,9.9 6.81,20.57 6.81,31.98l0 176.95 358.33 0c22.22,0 41.22,7.94 56.91,23.91 15.58,15.97 23.46,35.02 23.46,57.35 0,21.65 -7.72,39.86 -23.01,54.54 -15.42,14.84 -34.52,22.2 -57.36,22.2l-358.33 0 0 294.25c0,38.52 7.25,74.46 21.59,107.87 14.4,33.45 34.13,62.47 59.2,87.15 24.98,24.67 54.43,44.06 88.46,58.24 34.02,14.13 70.44,21.2 109.64,21.2 34.34,0 66.68,-5.01 97.05,-14.89 30.42,-9.96 58.24,-26.61 83.49,-50.11 19.25,-18.1 39.41,-27.04 60.5,-27.04 9.06,0 17.95,1.74 26.66,5.36 8.78,3.58 16.48,8.82 23.46,15.34 6.91,6.64 12.3,14.51 16.31,23.44 3.87,9.06 5.78,19 5.78,29.8 0,12.09 -2.53,24.23 -7.75,36.54 -5.05,12.38 -12.16,23.07 -21.2,32.11 -37.78,36.1 -80.76,63.16 -128.53,81.24 -47.85,18 -99.76,27.06 -155.75,27.06 -61.42,0 -118.81,-11.14 -172.46,-33.36 -53.52,-22.31 -100.25,-53 -140.11,-92.16 -39.7,-39.06 -71.3,-85.12 -94.3,-138.09 -22.99,-52.91 -34.52,-110.09 -34.52,-171.54l0 -627.36z"/>
   <path class="fil0" d="M18228.25 1953.09c0,-63.14 12.14,-122.8 36.33,-178.74 24.12,-55.96 57.07,-104.82 98.84,-146.71 41.74,-41.77 90.32,-74.96 146.08,-99.24 55.57,-24.35 115.05,-36.6 178.2,-36.6l4.6 0c26.95,0 47.56,7.52 61.8,22.6 14.11,15.06 21.2,34.02 21.2,56.86 0,22.86 -8.17,41.82 -24.48,56.83 -16.13,15.08 -35.75,22.67 -58.53,22.67l-4.6 0c-40.99,0 -79.45,7.86 -115.49,23.85 -36.17,16.02 -67.94,37.6 -95.39,64.98 -27.25,27.43 -48.84,59.45 -64.89,96.15 -16.08,36.73 -23.88,75.8 -23.88,117.36l0 330.4c0,22.89 -7.43,41.88 -22.26,56.9 -14.81,15.06 -33.24,22.55 -54.99,22.55 -10.87,0 -21.31,-1.97 -31.26,-5.84 -9.96,-3.94 -18.84,-9.49 -26.45,-16.71 -7.52,-7.25 -13.59,-15.63 -18.05,-25.24 -4.6,-9.69 -6.8,-20.18 -6.8,-31.66l0 -330.4z"/>
   <path class="fil0" d="M19212.63 2213.05c39.75,0 76.48,-7.33 110.21,-22.01 33.61,-14.72 62.98,-34.86 88.01,-60.43 24.96,-25.48 44.46,-55.28 58.7,-89.25 14.09,-33.95 21.2,-70.1 21.2,-108.63 0,-38.35 -7.1,-74.62 -21.2,-108.58 -14.24,-33.95 -33.74,-63.53 -58.7,-88.72 -25.03,-25.25 -54.39,-45.22 -88.01,-60.01 -33.73,-14.61 -70.46,-22.02 -110.21,-22.02 -39.14,0 -75.46,7.41 -109.09,22.02 -33.82,14.79 -63.01,34.76 -87.64,60.01 -24.69,25.19 -44.16,54.76 -58.7,88.72 -14.42,33.95 -21.67,70.23 -21.67,108.58 0,38.52 7.25,74.67 21.67,108.63 14.55,33.97 34.02,63.77 58.7,89.25 24.62,25.57 53.81,45.71 87.64,60.43 33.63,14.68 69.96,22.01 109.09,22.01zm0 160.69c-60.72,0 -117.57,-11.53 -170.66,-34.76 -52.91,-23.22 -99.02,-54.72 -138.43,-94.4 -39.41,-39.75 -70.55,-86.47 -93.4,-140.06 -22.99,-53.65 -34.45,-110.89 -34.45,-171.79 0,-60.79 11.46,-118.02 34.45,-171.67 22.85,-53.59 54.09,-100.41 93.58,-140.45 39.41,-40.09 85.62,-71.8 138.61,-94.92 53,-23.15 110.03,-34.81 170.77,-34.81 60.95,0 117.73,11.48 170.36,34.41 52.78,22.85 98.73,54.05 137.86,93.45 39.2,39.56 70.12,85.72 93.11,138.78 22.83,53.04 34.86,109.64 36,169.82l0 5.39 0 354.29c0,22.89 -7.88,42.35 -23.59,58.25 -15.68,16.03 -35.12,23.96 -58.07,23.96 -22.99,0 -41.65,-7.98 -56.23,-24.02 -14.5,-16.13 -21.8,-35.58 -21.8,-58.62l-0.86 -12.66c-37.94,31.48 -80.34,55.94 -127.35,73.54 -47.02,17.55 -97,26.27 -149.91,26.27z"/>
   <path class="fil0" d="M19793.54 1311.25c0,-10.79 2.07,-21.2 6.18,-31.14 4.31,-9.9 10.12,-18.66 17.53,-26.14 7.54,-7.54 15.97,-13.38 25.64,-17.66 9.49,-4.21 19.73,-6.3 30.55,-6.3 10.61,0 21.2,2.08 31.35,6.3 10.12,4.28 19.02,9.95 26.43,17.21 7.6,7.27 13.5,15.81 18,25.75 4.55,9.9 6.8,20.57 6.8,31.98l0 176.95 358.36 0c22.2,0 41.2,7.94 56.9,23.91 15.58,15.97 23.38,35.02 23.38,57.35 0,21.65 -7.65,39.86 -22.93,54.54 -15.42,14.84 -34.53,22.2 -57.35,22.2l-358.36 0 0 294.25c0,38.52 7.25,74.46 21.6,107.87 14.39,33.45 34.13,62.47 59.14,87.15 24.96,24.67 54.44,44.06 88.51,58.24 34.02,14.13 70.46,21.2 109.59,21.2 34.41,0 66.68,-5.01 97.11,-14.89 30.4,-9.96 58.25,-26.61 83.5,-50.11 19.21,-18.1 39.39,-27.04 60.48,-27.04 9.01,0 17.95,1.74 26.67,5.36 8.77,3.58 16.45,8.82 23.38,15.34 6.97,6.64 12.32,14.51 16.37,23.44 3.87,9.06 5.78,19 5.78,29.8 0,12.09 -2.53,24.23 -7.77,36.54 -5.05,12.38 -12.14,23.07 -21.2,32.11 -37.76,36.1 -80.74,63.16 -128.53,81.24 -47.84,18 -99.75,27.06 -155.8,27.06 -61.35,0 -118.75,-11.14 -172.45,-33.36 -53.47,-22.31 -100.21,-53 -140.08,-92.16 -39.7,-39.06 -71.35,-85.12 -94.29,-138.09 -23.01,-52.91 -34.52,-110.09 -34.52,-171.54l0 -627.36z"/>
   <path class="fil0" d="M21218.4 1112.68c7.25,-1.86 14.58,-2.74 21.83,-2.74 22.81,0 42.11,7.7 57.67,23.04 15.64,15.35 23.56,34.47 23.56,57.3 0,18.11 -5.38,34.08 -15.85,47.85 -10.56,13.88 -24.44,23.44 -41.93,28.9l-175.16 73.15c-7.2,2.36 -15.69,3.54 -25.35,3.54 -10.19,0 -19.97,-1.91 -29.3,-5.84 -9.33,-3.87 -17.37,-9.51 -24.35,-16.71 -6.97,-7.25 -12.48,-15.56 -16.76,-25.24 -4.15,-9.67 -6.25,-20.18 -6.25,-31.55 0,-17.53 5.41,-33.61 16.19,-48.36 10.82,-14.74 25.32,-24.57 43.46,-29.35l172.24 -73.99zm85.8 759.13c-5.38,-32.45 -16.4,-62.51 -32.89,-90.19 -16.58,-27.72 -37.05,-51.79 -61.34,-72.3 -24.46,-20.42 -52.18,-36.39 -83.16,-47.81 -31.03,-11.41 -63.94,-17.19 -98.79,-17.19 -35.54,0 -68.6,5.94 -99.24,17.65 -30.71,11.75 -58.2,27.95 -82.15,48.76 -24.19,20.8 -43.98,45.03 -59.67,72.64 -15.68,27.66 -26.24,57.17 -31.53,88.44l548.78 0zm-544.34 133.65c6.7,30.71 18.11,59.11 34.42,85.26 16.13,26.25 36.04,48.95 59.59,68.2 23.44,19.28 49.65,34.34 78.82,45.16 29.19,10.83 60.06,16.24 92.5,16.24 31.32,0 57.3,-2.92 77.72,-8.61 20.5,-5.73 40.93,-14.63 61.4,-26.66 16.86,-9.61 32.71,-14.43 47.9,-14.43 10.8,0 20.91,2.29 30.26,6.78 9.27,4.5 17.6,10.59 24.73,18.07 7.25,7.59 13.05,16.34 17.19,26.58 4.12,10.3 6.36,20.83 6.36,31.61 0,19.28 -7.25,36.33 -21.81,51.05 -14.34,14.74 -33.79,27.22 -58.14,37.46 -24.4,10.24 -52.73,17.99 -84.91,23.49 -32.23,5.41 -65.68,8.1 -100.71,8.1 -60.77,0 -117.96,-11.58 -171.77,-34.76 -53.99,-23.15 -100.81,-54.59 -140.85,-94.29 -40.04,-39.75 -71.62,-86.38 -94.92,-139.95 -23.1,-53.59 -34.7,-110.77 -34.7,-171.56 0,-61.4 11.59,-118.86 34.7,-172.45 23.3,-53.54 54.88,-100.08 94.92,-139.83 40.04,-39.75 86.86,-71.18 140.85,-94.42 53.81,-23.1 111,-34.74 171.77,-34.74 60.29,0 117.13,11.53 170.72,34.31 53.63,22.93 100.38,54.18 140.42,93.95 40.01,39.7 71.67,86.2 95.13,139.4 23.6,53.36 35.6,110.03 36.2,170.25 0,21.65 -7.3,39.64 -21.63,54.1 -14.56,14.43 -33.07,21.68 -56.06,21.68l-630.1 0z"/>
   <path class="fil0" d="M21686.47 1932.77c0,38.47 7.25,74.62 22.09,108.58 14.61,34.02 34.7,63.76 60.06,89.3 25.17,25.57 54.88,45.66 88.77,60.38 34.08,14.68 70.59,22.04 109.71,22.04 39.75,0 76.82,-7.36 111.05,-22.04 34.42,-14.72 64.16,-34.81 89.41,-60.38 25.35,-25.54 45.03,-55.28 59.61,-89.3 14.39,-33.95 21.63,-70.1 21.63,-108.58 0,-38.41 -7.25,-74.67 -21.63,-108.56 -14.58,-33.97 -34.26,-63.55 -59.61,-88.73 -25.25,-25.32 -54.99,-45.27 -89.41,-60 -34.23,-14.68 -71.3,-22.1 -111.05,-22.1 -39.12,0 -75.62,7.43 -109.71,22.1 -33.89,14.72 -63.6,34.68 -88.77,60 -25.36,25.19 -45.45,54.76 -60.06,88.73 -14.84,33.89 -22.09,70.15 -22.09,108.56zm-159.87 0c0,-60.9 11.59,-118.09 34.7,-171.67 23.27,-53.59 54.88,-100.47 94.92,-140.51 40.04,-40.09 86.59,-71.73 139.79,-94.85 53.36,-23.22 110.3,-34.86 171.09,-34.86 61.4,0 118.93,11.64 172.46,34.81 53.7,23.17 100.2,54.81 139.95,94.85 39.7,40.04 71.02,86.86 93.84,140.45 22.94,53.65 34.37,110.89 34.37,171.72 0,46.9 -6.65,90.88 -19.86,131.87 -13.38,40.93 -31.89,79.45 -55.99,115.6 22.2,24.12 39.57,53.52 51.83,88.1 12.32,34.63 18.55,74.49 18.55,119.72 0,52.34 -8.77,98.62 -26.09,138.72 -17.49,39.98 -41.04,73.59 -70.38,100.63 -29.53,27.11 -63.34,47.58 -101.1,61.47 -38.02,13.84 -77.43,20.75 -118.36,20.75 -22.83,0 -46.56,-1.63 -70.85,-4.94 -24.3,-3.26 -48.37,-4.96 -71.77,-4.96 -19.33,0 -40.2,2.58 -62.74,7.65 -22.49,5.12 -44.43,15.52 -65.52,31.14 -7.07,6.59 -14.84,11.41 -22.97,14.45 -8.17,2.99 -16.42,4.57 -24.77,4.57 -10.79,0 -21.2,-2.21 -31.08,-6.43 -9.96,-4.17 -18.84,-10.06 -26.7,-17.6 -7.88,-7.52 -14.13,-16.19 -19.02,-26.14 -4.76,-9.9 -7.25,-20.25 -7.25,-31.1 0,-14.47 4.26,-27.9 12.77,-40.2 8.27,-12.37 19.39,-23.33 33.4,-33 13.77,-9.62 29.9,-18 48.29,-25.25 18.21,-7.2 37.05,-13.22 56.35,-18.07 19.28,-4.76 38.28,-7.64 56.9,-8.54 18.66,-0.89 36.94,-1.34 54.99,-1.34 13.95,0 27.72,0.16 41.51,0.45 13.95,0.27 28.33,0.45 43.46,0.45 142.58,0 213.88,-53.59 213.88,-160.76 0,-13.16 -0.84,-24.64 -2.76,-34.24 -1.84,-9.62 -4.04,-18.05 -6.67,-25.25 -2.83,-7.31 -5.91,-13.56 -9.46,-18.95 -3.76,-5.44 -6.96,-10.56 -9.95,-15.4 -36.21,25.32 -75.01,44.59 -116.5,57.8 -41.56,13.27 -85.75,19.86 -132.76,19.86 -60.79,0 -117.73,-11.59 -171.09,-34.83 -53.2,-23.15 -99.75,-54.7 -139.79,-94.4 -40.04,-39.75 -71.65,-86.41 -94.92,-140 -23.1,-53.7 -34.7,-110.93 -34.7,-171.79z"/>
   <path class="fil0" d="M22521.86 1572.15c0,-10.85 2.08,-21.2 6.36,-31.14 4.17,-9.9 10.12,-18.5 17.55,-25.7 7.59,-7.2 16.31,-12.93 26.25,-17.15 9.9,-4.21 20.57,-6.36 31.98,-6.36 22.22,0 40.83,7.81 55.62,23.51 14.68,15.63 22.1,34.58 22.1,56.85l0 717.71c0,22.26 -7.7,41.11 -22.96,56.4 -15.45,15.34 -34,22.99 -55.65,22.99 -22.2,0 -41.33,-7.65 -57.35,-22.99 -15.85,-15.29 -23.91,-34.13 -23.91,-56.4l0 -717.71zm-9.9 -277.1c0,-12.64 2.37,-24.4 7.27,-35.25 4.71,-10.8 11.24,-20.29 19.46,-28.46 8.09,-8.09 17.6,-14.55 28.85,-19.39 11.19,-4.83 23.04,-7.18 35.58,-7.18 12.59,0 24.35,2.36 35.26,7.18 10.9,4.84 20.39,11.3 28.79,19.39 8.43,8.17 15.18,17.66 19.91,28.46 4.83,10.85 7.2,22.6 7.2,35.25 0,12.61 -2.37,24.3 -7.2,35.21 -4.73,10.85 -11.48,20.36 -19.91,28.38 -8.4,8.17 -17.89,14.63 -28.79,19.41 -10.91,4.84 -22.67,7.2 -35.26,7.2 -12.54,0 -24.4,-2.36 -35.58,-7.2 -11.25,-4.78 -20.76,-11.24 -28.85,-19.41 -8.22,-8.02 -14.74,-17.53 -19.46,-28.38 -4.89,-10.91 -7.27,-22.6 -7.27,-35.21z"/>
   <path class="fil0" d="M23235.43 2213.05c39.75,0 76.46,-7.33 110.14,-22.01 33.68,-14.72 63.05,-34.86 88.06,-60.43 24.96,-25.48 44.48,-55.28 58.7,-89.25 14.11,-33.95 21.2,-70.1 21.2,-108.63 0,-38.35 -7.09,-74.62 -21.2,-108.58 -14.22,-33.95 -33.74,-63.53 -58.7,-88.72 -25.01,-25.25 -54.38,-45.22 -88.06,-60.01 -33.68,-14.61 -70.39,-22.02 -110.14,-22.02 -39.14,0 -75.46,7.41 -109.09,22.02 -33.79,14.79 -63.01,34.76 -87.6,60.01 -24.73,25.19 -44.19,54.76 -58.75,88.72 -14.4,33.95 -21.65,70.23 -21.65,108.58 0,38.52 7.25,74.67 21.65,108.63 14.56,33.97 34.02,63.77 58.75,89.25 24.59,25.57 53.81,45.71 87.6,60.43 33.63,14.68 69.96,22.01 109.09,22.01zm0 160.69c-60.74,0 -117.52,-11.53 -170.61,-34.76 -52.96,-23.22 -99.07,-54.72 -138.48,-94.4 -39.43,-39.75 -70.57,-86.47 -93.4,-140.06 -22.99,-53.65 -34.47,-110.89 -34.47,-171.79 0,-60.79 11.48,-118.02 34.47,-171.67 22.83,-53.59 54.09,-100.41 93.56,-140.45 39.43,-40.09 85.63,-71.8 138.61,-94.92 53.09,-23.15 110.03,-34.81 170.82,-34.81 60.9,0 117.7,11.48 170.32,34.41 52.8,22.85 98.73,54.05 137.88,93.45 39.18,39.56 70.1,85.72 93.11,138.78 22.83,53.04 34.86,109.64 36.04,169.82l0 5.39 0 354.29c0,22.89 -7.93,42.35 -23.62,58.25 -15.68,16.03 -35.13,23.96 -58.12,23.96 -22.96,0 -41.62,-7.98 -56.19,-24.02 -14.51,-16.13 -21.81,-35.58 -21.81,-58.62l-0.84 -12.66c-37.97,31.48 -80.36,55.94 -127.37,73.54 -47,17.55 -96.98,26.27 -149.89,26.27z"/>
   <path class="fil0" d="M24216.18 2000.09l-111.95 0 -51.44 0c-36.05,0 -69.55,-7.15 -100.2,-21.26 -30.69,-14.16 -57.23,-33.16 -79.9,-57.01 -22.6,-23.78 -40.04,-51.41 -52.81,-82.76 -12.58,-31.32 -18.99,-64.45 -18.99,-99.49 0,-34.34 6.68,-66.57 19.91,-96.69 13.32,-30.21 31.1,-56.57 53.81,-79.18 22.49,-22.65 49.02,-40.38 79.89,-53.31 30.71,-12.98 63.48,-19.5 98.29,-19.5l313.25 0c21.7,0 40.38,6.7 56.06,20.02 15.53,13.26 23.38,32.66 23.38,58.07 0,11.53 -1.84,22.28 -5.83,32.23 -3.94,9.96 -9.33,18.71 -16.19,26.3 -6.97,7.54 -15.02,13.51 -24.02,17.73 -9.04,4.21 -18.66,6.35 -28.95,6.35l-4.44 0 -312.41 0c-13.16,0 -25.3,2.65 -36.38,7.65 -11.14,5.12 -20.91,12.09 -29.4,20.8 -8.44,8.72 -15.13,18.62 -19.84,29.76 -4.89,11.19 -7.33,23.06 -7.33,35.65 0,13.9 2.44,26.53 7.33,37.94 4.71,11.43 11.56,21.2 20.28,29.37 8.77,8.09 18.66,14.61 29.85,19.39 11.25,4.83 23.12,7.25 35.66,7.25l52.52 0 129.26 0c36.76,0 70.85,7.04 102.17,21.2 31.43,14.18 58.37,33.31 80.97,57.3 22.67,24.07 40.43,52.08 53.36,83.96 13,31.87 19.39,65.34 19.39,100.26 0,35.47 -6.51,69.04 -19.39,100.59 -13.09,31.64 -31.14,59.25 -54.14,83.1 -22.94,23.78 -50.28,42.51 -82,56.41 -31.76,13.88 -65.78,20.73 -102.54,20.73l-374.67 0c-21.02,0 -38.57,-7.48 -52.34,-22.54 -13.79,-15.02 -20.75,-34.58 -20.75,-58.7 0,-24.06 6.96,-42.96 20.75,-56.85 13.77,-13.84 31.32,-20.75 52.34,-20.75l361.09 0c13.29,0 26.45,-2.29 39.78,-6.81 13.21,-4.54 25.24,-11.3 36.04,-20.29 10.79,-8.99 19.57,-19.96 26.25,-32.94 6.52,-12.95 9.96,-28.17 9.96,-45.61 0,-16.81 -3.33,-31.26 -9.51,-43.35 -6.43,-12.03 -14.85,-21.93 -25.35,-29.76 -10.53,-7.81 -22.38,-13.82 -35.6,-18.08 -13.38,-4.23 -26.88,-6.59 -40.65,-7.15l-1.74 0 -2.83 0z"/>
   <path class="fil0" d="M15857.11 3485.02c0,38.57 7.25,74.83 22.09,108.84 14.61,34.03 34.7,63.71 59.88,89.3 25.2,25.64 54.99,45.77 89.23,60.5 34.24,14.74 70.89,22.15 109.87,22.15 39.14,0 75.74,-7.41 109.98,-22.15 34.24,-14.72 64.06,-34.86 89.23,-60.5 25.2,-25.59 45.09,-55.27 59.5,-89.3 14.34,-34 21.59,-70.26 21.59,-108.84 0,-38.46 -7.25,-74.74 -21.59,-108.75 -14.4,-34.02 -34.29,-63.66 -59.5,-88.96 -25.17,-25.24 -54.99,-45.19 -89.23,-59.93 -34.24,-14.74 -70.85,-22.22 -109.98,-22.22 -38.97,0 -75.62,7.48 -109.87,22.22 -34.24,14.74 -64.03,34.7 -89.23,59.93 -25.19,25.3 -45.27,54.94 -59.88,88.96 -14.84,34.02 -22.09,70.3 -22.09,108.75zm-160.71 -0.52c0,-60.84 11.53,-118.09 34.81,-171.72 23.17,-53.59 54.72,-100.42 94.85,-140.45 40.04,-39.99 86.93,-71.65 140.4,-94.87 53.7,-23.12 110.95,-34.74 171.72,-34.74 60.9,0 118.2,11.62 171.66,34.81 53.7,23.22 100.39,54.88 140.08,94.97 39.75,40.2 71.25,87.04 94.03,140.69 22.97,53.7 34.41,110.98 34.41,171.83 0,60.95 -11.43,118.23 -34.41,171.93 -22.78,53.65 -54.1,100.31 -93.85,140.12 -39.7,39.86 -86.26,71.35 -139.9,94.56 -53.59,23.3 -110.84,34.81 -171.56,34.81 -54.7,0 -105.86,-8.98 -153.49,-26.82 -47.35,-17.94 -90.59,-43.29 -128.98,-76.08l0 321.36c0,22.94 -7.1,42.45 -21.31,58.7 -14.24,16.24 -33.24,24.4 -56.75,24.4 -22.43,0 -41.65,-7.98 -57.74,-23.89 -15.98,-16.08 -23.96,-35.76 -23.96,-59.2l0 -660.41z"/>
   <path class="fil0" d="M17077.11 3764.87c39.7,0 76.46,-7.38 110.14,-22.04 33.63,-14.74 62.98,-34.81 88.06,-60.4 24.91,-25.46 44.42,-55.31 58.7,-89.23 14.05,-33.95 21.2,-70.17 21.2,-108.63 0,-38.35 -7.15,-74.62 -21.2,-108.64 -14.29,-33.89 -33.79,-63.48 -58.7,-88.67 -25.07,-25.24 -54.43,-45.21 -88.06,-59.98 -33.68,-14.69 -70.44,-22.12 -110.14,-22.12 -39.14,0 -75.53,7.43 -109.14,22.12 -33.81,14.77 -63.03,34.74 -87.6,59.98 -24.75,25.19 -44.19,54.78 -58.75,88.67 -14.4,34.02 -21.6,70.3 -21.6,108.64 0,38.46 7.2,74.67 21.6,108.63 14.56,33.92 34,63.77 58.75,89.23 24.57,25.59 53.8,45.66 87.6,60.4 33.61,14.66 70.01,22.04 109.14,22.04zm0 160.69c-60.79,0 -117.59,-11.58 -170.66,-34.74 -52.97,-23.22 -99.08,-54.72 -138.49,-94.47 -39.43,-39.69 -70.57,-86.43 -93.38,-140.01 -23.01,-53.63 -34.42,-110.89 -34.42,-171.77 0,-60.84 11.41,-118.02 34.42,-171.67 22.81,-53.59 54.07,-100.42 93.56,-140.45 39.41,-40.15 85.68,-71.81 138.64,-94.92 53.04,-23.17 110,-34.86 170.77,-34.86 60.9,0 117.7,11.51 170.33,34.45 52.78,22.78 98.73,53.99 137.86,93.46 39.2,39.46 70.12,85.68 93.17,138.72 22.83,53 34.79,109.69 35.97,169.85l0 5.41 0 354.24c0,22.93 -7.86,42.4 -23.6,58.3 -15.69,16.02 -35.13,23.96 -58.09,23.96 -22.99,0 -41.67,-8.06 -56.22,-24.02 -14.5,-16.13 -21.76,-35.58 -21.76,-58.64l-0.9 -12.71c-37.94,31.55 -80.34,55.99 -127.35,73.54 -47.02,17.55 -96.94,26.32 -149.84,26.32z"/>
   <path class="fil0" d="M17657.95 3504.9c0,-63.16 12.21,-122.77 36.31,-178.76 24.14,-55.94 57.09,-104.82 98.92,-146.7 41.67,-41.77 90.3,-74.9 146.02,-99.24 55.56,-24.35 115.05,-36.6 178.24,-36.6l4.55 0c26.95,0 47.63,7.59 61.87,22.6 14.05,15.06 21.13,34.02 21.13,56.83 0,22.96 -8.1,41.85 -24.46,56.86 -16.15,15.06 -35.71,22.65 -58.54,22.65l-4.55 0c-40.98,0 -79.5,7.93 -115.54,23.85 -36.17,16.02 -67.87,37.67 -95.32,65 -27.27,27.43 -48.92,59.41 -64.94,96.15 -16.03,36.73 -23.85,75.85 -23.85,117.36l0 330.4c0,22.88 -7.43,41.88 -22.33,56.9 -14.72,15.06 -33.16,22.55 -54.93,22.55 -10.85,0 -21.38,-1.92 -31.32,-5.84 -9.96,-3.94 -18.83,-9.53 -26.37,-16.71 -7.54,-7.25 -13.66,-15.63 -18.11,-25.32 -4.55,-9.54 -6.8,-20.07 -6.8,-31.58l0 -330.4z"/>
   <path class="fil0" d="M18642.39 3764.87c39.7,0 76.46,-7.38 110.14,-22.04 33.68,-14.74 62.98,-34.81 88.04,-60.4 24.91,-25.46 44.43,-55.31 58.7,-89.23 14.13,-33.95 21.2,-70.17 21.2,-108.63 0,-38.35 -7.07,-74.62 -21.2,-108.64 -14.27,-33.89 -33.79,-63.48 -58.7,-88.67 -25.06,-25.24 -54.36,-45.21 -88.04,-59.98 -33.68,-14.69 -70.44,-22.12 -110.14,-22.12 -39.14,0 -75.53,7.43 -109.09,22.12 -33.86,14.77 -63.08,34.74 -87.67,59.98 -24.73,25.19 -44.13,54.78 -58.69,88.67 -14.4,34.02 -21.65,70.3 -21.65,108.64 0,38.46 7.25,74.67 21.65,108.63 14.56,33.92 33.95,63.77 58.69,89.23 24.59,25.59 53.81,45.66 87.67,60.4 33.57,14.66 69.96,22.04 109.09,22.04zm0 160.69c-60.8,0 -117.59,-11.58 -170.67,-34.74 -52.96,-23.22 -99,-54.72 -138.41,-94.47 -39.49,-39.69 -70.64,-86.43 -93.4,-140.01 -23.01,-53.63 -34.47,-110.89 -34.47,-171.77 0,-60.84 11.46,-118.02 34.47,-171.67 22.76,-53.59 54.09,-100.42 93.5,-140.45 39.48,-40.15 85.7,-71.81 138.66,-94.92 53.04,-23.17 110,-34.86 170.77,-34.86 60.95,0 117.75,11.51 170.32,34.45 52.8,22.78 98.79,53.99 137.88,93.46 39.18,39.46 70.18,85.68 93.16,138.72 22.85,53 34.81,109.69 35.99,169.85l0 5.41 0 354.24c0,22.93 -7.86,42.4 -23.6,58.3 -15.69,16.02 -35.1,23.96 -58.09,23.96 -22.94,0 -41.61,-8.06 -56.17,-24.02 -14.51,-16.13 -21.83,-35.58 -21.83,-58.64l-0.84 -12.71c-37.96,31.55 -80.39,55.99 -127.4,73.54 -46.95,17.55 -96.94,26.32 -149.84,26.32z"/>
   <path class="fil0" d="M19888.47 3158.27c-4.91,-10.24 -7.27,-21.67 -7.27,-34.36 0,-10.17 1.92,-20.13 5.81,-29.82 3.97,-9.54 9.32,-17.92 16.31,-25.24 6.96,-7.2 15.06,-13.05 24.73,-17.53 9.67,-4.5 20.46,-6.76 32.61,-6.76 15.56,0 29.97,4.23 42.83,12.61 12.88,8.43 22.67,20.41 29.37,36.1l229.23 555.2 227.5 -555.2c6.59,-15.08 16.65,-26.77 30.3,-35.26 13.5,-8.33 27.74,-12.59 42.85,-12.59 10.85,0 21.04,2.24 30.71,6.8 9.61,4.49 18.03,10.35 25.19,17.6 7.25,7.2 13.05,15.63 17.21,25.25 4.08,9.67 6.35,19.57 6.35,29.76 0.61,6.12 0.16,11.79 -1.29,17.19 -1.63,5.41 -3.65,10.85 -6.02,16.26l-299.58 712.23c-7.25,14.47 -16.94,26.14 -28.92,35.2 -12.14,9.06 -26.25,13.56 -42.4,13.56 -20.62,0 -36.92,-4.84 -49.18,-14.45 -12.5,-9.61 -21.2,-21.02 -26.72,-34.31l-299.64 -712.23z"/>
   <path class="fil0" d="M21096.6 3764.87c39.75,0 76.54,-7.38 110.16,-22.04 33.68,-14.74 63.03,-34.81 88.06,-60.4 24.96,-25.46 44.46,-55.31 58.7,-89.23 14.09,-33.95 21.2,-70.17 21.2,-108.63 0,-38.35 -7.1,-74.62 -21.2,-108.64 -14.24,-33.89 -33.74,-63.48 -58.7,-88.67 -25.03,-25.24 -54.38,-45.21 -88.06,-59.98 -33.61,-14.69 -70.41,-22.12 -110.16,-22.12 -39.07,0 -75.45,7.43 -109.08,22.12 -33.84,14.77 -63.03,34.74 -87.65,59.98 -24.75,25.19 -44.16,54.78 -58.7,88.67 -14.39,34.02 -21.67,70.3 -21.67,108.64 0,38.46 7.28,74.67 21.67,108.63 14.55,33.92 33.95,63.77 58.7,89.23 24.62,25.59 53.81,45.66 87.65,60.4 33.63,14.66 70.01,22.04 109.08,22.04zm0 160.69c-60.77,0 -117.57,-11.58 -170.59,-34.74 -52.97,-23.22 -99.08,-54.72 -138.49,-94.47 -39.46,-39.69 -70.55,-86.43 -93.4,-140.01 -22.94,-53.63 -34.41,-110.89 -34.41,-171.77 0,-60.84 11.46,-118.02 34.41,-171.67 22.85,-53.59 54.1,-100.42 93.51,-140.45 39.48,-40.15 85.7,-71.81 138.67,-94.92 53.07,-23.17 109.97,-34.86 170.77,-34.86 60.95,0 117.73,11.51 170.36,34.45 52.78,22.78 98.73,53.99 137.8,93.46 39.2,39.46 70.18,85.68 93.17,138.72 22.83,53 34.87,109.69 36,169.85l0 5.41 0 354.24c0,22.93 -7.88,42.4 -23.57,58.3 -15.69,16.02 -35.13,23.96 -58.09,23.96 -22.99,0 -41.65,-8.06 -56.23,-24.02 -14.5,-16.13 -21.8,-35.58 -21.8,-58.64l-0.86 -12.71c-37.94,31.55 -80.34,55.99 -127.35,73.54 -47.02,17.55 -97,26.32 -149.91,26.32z"/>
   <path class="fil0" d="M21677.51 3504.9c0,-63.16 12.14,-122.77 36.33,-178.76 24.1,-55.94 57.07,-104.82 98.84,-146.7 41.74,-41.77 90.32,-74.9 146.03,-99.24 55.6,-24.35 115.1,-36.6 178.24,-36.6l4.6 0c26.95,0 47.56,7.59 61.85,22.6 14.05,15.06 21.09,34.02 21.09,56.83 0,22.96 -8.1,41.85 -24.41,56.86 -16.13,15.06 -35.75,22.65 -58.53,22.65l-4.6 0c-40.94,0 -79.45,7.93 -115.55,23.85 -36.1,16.02 -67.87,37.67 -95.26,65 -27.27,27.43 -48.97,59.41 -64.95,96.15 -16.08,36.73 -23.88,75.85 -23.88,117.36l0 330.4c0,22.88 -7.38,41.88 -22.28,56.9 -14.79,15.06 -33.23,22.55 -54.97,22.55 -10.87,0 -21.31,-1.92 -31.27,-5.84 -9.95,-3.94 -18.83,-9.53 -26.43,-16.71 -7.52,-7.25 -13.59,-15.63 -18.05,-25.32 -4.6,-9.54 -6.8,-20.07 -6.8,-31.58l0 -330.4z"/>
   <path class="fil0" d="M22942.69 3423.65c-5.49,-32.45 -16.4,-62.6 -32.87,-90.2 -16.66,-27.77 -37.05,-51.83 -61.42,-72.31 -24.4,-20.46 -52.12,-36.36 -83.1,-47.77 -31.03,-11.41 -63.94,-17.21 -98.79,-17.21 -35.58,0 -68.67,5.91 -99.36,17.65 -30.71,11.71 -58.09,27.95 -82.08,48.76 -24.19,20.75 -43.92,44.98 -59.61,72.64 -15.74,27.67 -26.25,57.19 -31.6,88.46l548.83 0zm-544.4 133.65c6.7,30.64 18.11,59.09 34.42,85.23 16.19,26.27 35.99,48.92 59.61,68.23 23.38,19.28 49.65,34.28 78.89,45.13 29.17,10.82 60.04,16.19 92.48,16.19 31.27,0 57.25,-2.86 77.72,-8.54 20.41,-5.73 40.88,-14.61 61.4,-26.64 16.87,-9.62 32.71,-14.47 47.79,-14.47 10.91,0 20.92,2.31 30.26,6.76 9.33,4.54 17.71,10.61 24.8,18.1 7.3,7.52 13.05,16.36 17.19,26.59 4.17,10.24 6.41,20.75 6.41,31.61 0,19.21 -7.25,36.31 -21.86,51.05 -14.35,14.72 -33.79,27.2 -58.09,37.46 -24.46,10.16 -52.8,17.97 -84.96,23.49 -32.18,5.39 -65.68,8.04 -100.67,8.04 -60.77,0 -118.01,-11.54 -171.82,-34.76 -53.97,-23.09 -100.88,-54.52 -140.8,-94.29 -40.04,-39.75 -71.62,-86.31 -94.92,-139.95 -23.15,-53.54 -34.68,-110.77 -34.68,-171.56 0,-61.34 11.53,-118.75 34.68,-172.4 23.3,-53.52 54.88,-100.15 94.92,-139.9 39.93,-39.69 86.83,-71.12 140.8,-94.34 53.81,-23.1 111.05,-34.76 171.82,-34.76 60.17,0 117.13,11.48 170.66,34.29 53.65,22.96 100.38,54.22 140.42,93.92 40.04,39.75 71.75,86.25 95.19,139.45 23.56,53.36 35.6,110.05 36.15,170.2 0,21.63 -7.31,39.64 -21.63,54.14 -14.51,14.47 -33.07,21.72 -56.06,21.72l-630.12 0z"/>
   <path class="fil0" d="M23324.05 2939.8c-25.35,0 -46.27,-8.88 -62.85,-26.58 -16.48,-17.84 -24.8,-39.31 -24.8,-64.63 0,-12.58 2.36,-24.51 7.25,-35.65 4.71,-11.06 11.3,-20.73 19.46,-28.9 8.04,-8.09 17.6,-14.5 28.79,-19.33 11.08,-4.84 22.78,-7.25 34.81,-7.25 25.82,0 47.16,8.77 64.1,26.14 16.81,17.55 25.32,39.12 25.32,64.98 0,12.71 -2.53,24.41 -7.27,35.26 -4.89,10.8 -11.41,20.42 -19.91,28.9 -8.43,8.38 -18.21,15.02 -29.29,19.86 -11.14,4.83 -23.01,7.18 -35.6,7.18zm-293.46 1159.99c0,-11.4 2.08,-22.15 6.3,-32.05 4.28,-9.95 9.9,-18.55 17.15,-25.69 7.25,-7.18 15.85,-12.88 25.82,-16.71 9.78,-3.94 20.36,-5.83 31.14,-5.83l6.18 0c17.55,0 34.02,-3.37 49.71,-9.96 15.69,-6.7 29.35,-15.76 41.06,-27.54 11.74,-11.71 20.91,-25.43 27.59,-41.11 6.52,-15.64 9.95,-32.16 9.95,-49.65l0 -765.45c0,-11.48 2.03,-22.15 6.2,-32.1 4.28,-9.96 10.06,-18.44 17.6,-25.72 7.59,-7.25 16.19,-12.92 25.82,-17.13 9.61,-4.21 19.91,-6.31 30.69,-6.31 10.85,0 21.09,2.1 30.69,6.31 9.64,4.21 18.07,9.88 25.2,17.13 7.25,7.28 12.93,15.76 17.19,25.72 4.17,9.95 6.36,20.62 6.36,32.1l0 765.45c0,39.69 -7.65,77.26 -23.1,112.45 -15.24,35.13 -35.99,65.79 -62.24,92.11 -26.09,26.09 -56.64,46.71 -91.61,61.79 -34.86,15.02 -71.91,22.54 -111.11,22.54l-6.18 0c-10.79,0 -21.36,-1.97 -31.14,-5.89 -9.96,-3.87 -18.57,-9.46 -25.82,-16.65 -7.25,-7.25 -12.87,-15.81 -17.15,-25.75 -4.21,-9.95 -6.3,-20.59 -6.3,-32.06z"/>
   <path class="fil0" d="M23704.58 3485.02c0,38.39 7.31,74.61 22.15,108.46 14.63,33.84 34.7,63.6 60,89.11 25.2,25.48 54.89,45.61 88.8,60.22 34.11,14.74 70.55,22.04 109.69,22.04 39.77,0 76.64,-7.3 110.66,-22.04 33.91,-14.61 63.6,-34.74 88.96,-60.22 25.12,-25.51 45.03,-55.27 59.61,-89.11 14.32,-33.86 21.57,-70.07 21.57,-108.46 0,-38.41 -7.25,-74.51 -21.57,-108.35 -14.58,-33.92 -34.49,-63.48 -59.61,-88.69 -25.36,-25.25 -55.06,-45.16 -88.96,-59.82 -34.02,-14.68 -70.89,-22.1 -110.66,-22.1 -39.14,0 -75.58,7.43 -109.69,22.1 -33.91,14.66 -63.6,34.57 -88.8,59.82 -25.3,25.2 -45.37,54.76 -60,88.69 -14.84,33.84 -22.15,69.94 -22.15,108.35zm-159.81 0c0,-60.79 11.54,-117.99 34.7,-171.46 23.3,-53.59 54.88,-100.36 94.92,-140.4 40.04,-40.02 86.54,-71.62 139.72,-94.79 53.42,-23.17 110.39,-34.81 171.11,-34.81 61.4,0 118.93,11.64 172.45,34.81 53.7,23.17 100.26,54.76 139.96,94.79 39.75,40.04 71.01,86.81 93.85,140.4 22.99,53.47 34.41,110.68 34.41,171.46 0,60.77 -11.41,118.01 -34.41,171.54 -22.85,53.59 -54.1,100.2 -93.85,139.95 -39.7,39.77 -86.26,71.2 -139.96,94.3 -53.52,23.17 -111.05,34.74 -172.45,34.74 -60.72,0 -117.68,-11.58 -171.11,-34.74 -53.18,-23.1 -99.68,-54.54 -139.72,-94.3 -40.04,-39.75 -71.62,-86.36 -94.92,-139.95 -23.15,-53.54 -34.7,-110.77 -34.7,-171.54z"/>
   <path class="fil0" d="M14164.76 639.98c10.56,171.83 15.19,343.67 22.94,515.44l13.09 515.52c5.25,171.88 5.47,343.67 8.22,515.5l2.52 515.49c-1.18,343.67 -2.41,687.35 -10.96,1031.02l-13.03 515.49c-7.65,171.79 -12.27,343.6 -22.78,515.44l-5.52 0 -2.68 -2061.94 2.68 -2061.94 5.52 0z"/>
  </g>
 </g>
</svg>
