<?xml version="1.0" encoding="utf-8"?>
<!-- Generator: Adobe Illustrator 21.1.0, SVG Export Plug-In . SVG Version: 6.00 Build 0)  -->
<svg version="1.1" id="Camada_1" xmlns="http://www.w3.org/2000/svg" xmlns:xlink="http://www.w3.org/1999/xlink" x="0px" y="0px"
	 viewBox="0 0 2500 407.4" style="enable-background:new 0 0 2500 407.4;" xml:space="preserve">
<style type="text/css">
	.st0{fill-rule:evenodd;clip-rule:evenodd;fill:url(#SVGID_1_);}
	.st1{fill-rule:evenodd;clip-rule:evenodd;fill:#3A5086;}
	.st2{fill-rule:evenodd;clip-rule:evenodd;fill:#88C4E2;}
	.st3{clip-path:url(#SVGID_3_);}
	.st4{clip-path:url(#SVGID_7_);}
	.st5{fill-rule:evenodd;clip-rule:evenodd;fill:#FFFFFF;}
	.st6{clip-path:url(#SVGID_11_);}
	.st7{clip-path:url(#SVGID_17_);}
	.st8{fill-rule:evenodd;clip-rule:evenodd;fill:url(#SVGID_20_);}
	.st9{fill-rule:evenodd;clip-rule:evenodd;fill:url(#SVGID_21_);}
	.st10{fill-rule:evenodd;clip-rule:evenodd;fill:url(#SVGID_22_);}
	.st11{fill-rule:evenodd;clip-rule:evenodd;fill:url(#SVGID_23_);}
	.st12{fill-rule:evenodd;clip-rule:evenodd;fill:url(#SVGID_24_);}
	.st13{fill-rule:evenodd;clip-rule:evenodd;fill:url(#SVGID_25_);}
	.st14{fill-rule:evenodd;clip-rule:evenodd;fill:url(#SVGID_26_);}
	.st15{fill-rule:evenodd;clip-rule:evenodd;fill:url(#SVGID_27_);}
	.st16{fill-rule:evenodd;clip-rule:evenodd;fill:url(#SVGID_28_);}
	.st17{fill-rule:evenodd;clip-rule:evenodd;fill:url(#SVGID_29_);}
	.st18{fill-rule:evenodd;clip-rule:evenodd;fill:url(#SVGID_30_);}
	.st19{fill-rule:evenodd;clip-rule:evenodd;fill:url(#SVGID_31_);}
	.st20{fill-rule:evenodd;clip-rule:evenodd;fill:url(#SVGID_32_);}
	.st21{fill-rule:evenodd;clip-rule:evenodd;fill:#1A386A;}
</style>
<g>
	<linearGradient id="SVGID_1_" gradientUnits="userSpaceOnUse" x1="197.0055" y1="13.4486" x2="197.0054" y2="405.7845">
		<stop  offset="0" style="stop-color:#4C5B96"/>
		<stop  offset="6.865692e-02" style="stop-color:#44538B"/>
		<stop  offset="0.2678" style="stop-color:#314373"/>
		<stop  offset="0.4797" style="stop-color:#243A64"/>
		<stop  offset="0.7114" style="stop-color:#1C355C"/>
		<stop  offset="1" style="stop-color:#19345A"/>
	</linearGradient>
	<ellipse class="st0" cx="197" cy="209.6" rx="196.2" ry="196.2"/>
	<path class="st1" d="M4.3,172.7h139.2V111H27.4C16.5,129.8,8.5,150.5,4.3,172.7z"/>
	<path class="st1" d="M389.7,246.6H247.4v61.7h119.1C377.5,289.5,385.5,268.7,389.7,246.6z"/>
	<path class="st2" d="M4.3,172.7h139.2V111H27.4C16.5,129.8,8.5,150.5,4.3,172.7z"/>
	<g>
		<defs>
			<path id="SVGID_2_" d="M4.3,172.7h139.2V111H27.4C16.5,129.8,8.5,150.5,4.3,172.7z"/>
		</defs>
		<clipPath id="SVGID_3_">
			<use xlink:href="#SVGID_2_"  style="overflow:visible;"/>
		</clipPath>
		<g class="st3">
			<g>
				<defs>
					<rect id="SVGID_4_" x="-0.9" y="105.4" width="150.5" height="73.6"/>
				</defs>
				<clipPath id="SVGID_5_">
					<use xlink:href="#SVGID_4_"  style="overflow:visible;"/>
				</clipPath>
			</g>
		</g>
	</g>
	<path class="st2" d="M389.7,246.6H247.4v61.7h119.1C377.5,289.5,385.5,268.7,389.7,246.6z"/>
	<g>
		<defs>
			<path id="SVGID_6_" d="M389.7,246.6H247.4v61.7h119.1C377.5,289.5,385.5,268.7,389.7,246.6z"/>
		</defs>
		<clipPath id="SVGID_7_">
			<use xlink:href="#SVGID_6_"  style="overflow:visible;"/>
		</clipPath>
		<g class="st4">
			<g>
				<defs>
					<rect id="SVGID_8_" x="244.1" y="242.5" width="148.9" height="69.8"/>
				</defs>
				<clipPath id="SVGID_9_">
					<use xlink:href="#SVGID_8_"  style="overflow:visible;"/>
				</clipPath>
			</g>
		</g>
	</g>
	<path class="st5" d="M266,268.8l-34.3-56.7l-38.4-66.6c0,0-19.2-34.6-54.4-34.6h-71c13.1,0,41.4,13.6,55.6,39.5l34,56.7l38.3,66.6
		c0,0,18,32.3,51.1,34.5c-0.5,0-1.1,0.1-1.6,0.1l5.2,0c0,0,0,0,0,0h71.5C308.9,308.3,280.3,294.7,266,268.8z"/>
	<g>
		<defs>
			<path id="SVGID_10_" d="M268,268.8l-34.3-56.7l-38.4-66.6c0,0-19.2-34.6-54.4-34.6h-71c13.1,0,41.4,13.6,55.6,39.5l34,56.7
				l38.3,66.6c0,0,18,32.3,51.1,34.5c-0.5,0-1.1,0.1-1.6,0.1l5.2,0c0,0,0,0,0,0h71.5C310.9,308.3,282.3,294.7,268,268.8z"/>
		</defs>
		<clipPath id="SVGID_11_">
			<use xlink:href="#SVGID_10_"  style="overflow:visible;"/>
		</clipPath>
		<g class="st6">
			<g>
				<defs>
					<rect id="SVGID_12_" x="66.2" y="107.9" width="140.1" height="47.4"/>
				</defs>
				<clipPath id="SVGID_13_">
					<use xlink:href="#SVGID_12_"  style="overflow:visible;"/>
				</clipPath>
			</g>
			<g>
				<defs>
					<rect id="SVGID_14_" x="201.4" y="280.7" width="126.5" height="31.4"/>
				</defs>
				<clipPath id="SVGID_15_">
					<use xlink:href="#SVGID_14_"  style="overflow:visible;"/>
				</clipPath>
			</g>
		</g>
	</g>
	<path class="st5" d="M206.2,145.6l9,15.6l94.4-0.1l-8.4-22.6c0,0-9.2-27.5-37.4-27.5l-95,0C191.4,118.2,206.2,145.6,206.2,145.6z"
		/>
	<g>
		<defs>
			<path id="SVGID_16_" d="M206.2,145.6l9,15.6l94.4-0.1l-8.4-22.6c0,0-9.2-27.5-37.4-27.5l-95,0
				C191.4,118.2,206.2,145.6,206.2,145.6z"/>
		</defs>
		<clipPath id="SVGID_17_">
			<use xlink:href="#SVGID_16_"  style="overflow:visible;"/>
		</clipPath>
		<g class="st7">
			<g>
				<defs>
					<rect id="SVGID_18_" x="164.2" y="106.3" width="150.1" height="59.5"/>
				</defs>
				<clipPath id="SVGID_19_">
					<use xlink:href="#SVGID_18_"  style="overflow:visible;"/>
				</clipPath>
			</g>
		</g>
	</g>
</g>
<linearGradient id="SVGID_20_" gradientUnits="userSpaceOnUse" x1="542.344" y1="108.632" x2="542.344" y2="300.0823">
	<stop  offset="0" style="stop-color:#4C5B96"/>
	<stop  offset="1" style="stop-color:#19345A"/>
</linearGradient>
<polygon class="st8" points="517.4,108.6 487,108.6 487,300.1 597.7,300.1 597.7,272.2 517.4,272.2 "/>
<linearGradient id="SVGID_21_" gradientUnits="userSpaceOnUse" x1="685.4913" y1="108.632" x2="685.4913" y2="302.8568">
	<stop  offset="0" style="stop-color:#4C5B96"/>
	<stop  offset="1" style="stop-color:#19345A"/>
</linearGradient>
<path class="st9" d="M723.9,243.5c0,21.8-11.8,31.5-38.4,31.5c-26.6,0-38.4-9.7-38.4-31.5V108.6h-30.4v136.3c0,21.6,8.9,58,68.8,58
	c59.9,0,68.8-36.3,68.8-58V108.6h-30.4V243.5z"/>
<linearGradient id="SVGID_22_" gradientUnits="userSpaceOnUse" x1="858.0679" y1="108.632" x2="858.0679" y2="300.0823">
	<stop  offset="0" style="stop-color:#4C5B96"/>
	<stop  offset="1" style="stop-color:#19345A"/>
</linearGradient>
<path class="st10" d="M860.7,108.6h-68v191.5h68c51.8,0,62.7-30.6,62.7-56.3v-78.9C923.4,139.2,912.5,108.6,860.7,108.6L860.7,108.6
	z M823.1,136.5L823.1,136.5h36.7c27.6,0,33.1,11.5,33.1,30.1v75.5c0,18.6-5.5,30.1-33.1,30.1h-36.7V136.5z"/>
<linearGradient id="SVGID_23_" gradientUnits="userSpaceOnUse" x1="1023.7011" y1="105.8575" x2="1023.7011" y2="302.8568">
	<stop  offset="0" style="stop-color:#4C5B96"/>
	<stop  offset="1" style="stop-color:#19345A"/>
</linearGradient>
<path class="st11" d="M1023.7,105.9c-43.9,0-70.2,22.2-70.2,59.3v78.3c0,37.2,26.2,59.3,70.2,59.3c43.9,0,70.2-22.2,70.2-59.3v-78.3
	C1093.9,128,1067.6,105.9,1023.7,105.9L1023.7,105.9z M983.9,165.8L983.9,165.8c0-21.4,13.4-32.3,39.8-32.3
	c26.4,0,39.8,10.9,39.8,32.3V243c0,21.4-13.4,32.3-39.8,32.3c-26.4,0-39.8-10.9-39.8-32.3V165.8z"/>
<linearGradient id="SVGID_24_" gradientUnits="userSpaceOnUse" x1="1187.8114" y1="108.632" x2="1187.8113" y2="300.0823">
	<stop  offset="0" style="stop-color:#4C5B96"/>
	<stop  offset="1" style="stop-color:#19345A"/>
</linearGradient>
<polygon class="st12" points="1187.8,265.6 1136,108.6 1106.1,108.6 1169.4,300.1 1206.3,300.1 1269.5,108.6 1239.6,108.6 "/>
<linearGradient id="SVGID_25_" gradientUnits="userSpaceOnUse" x1="1306.1024" y1="108.632" x2="1306.1024" y2="300.0823">
	<stop  offset="0" style="stop-color:#4C5B96"/>
	<stop  offset="1" style="stop-color:#19345A"/>
</linearGradient>
<rect x="1290.9" y="108.6" class="st13" width="30.4" height="191.5"/>
<linearGradient id="SVGID_26_" gradientUnits="userSpaceOnUse" x1="1416.7852" y1="105.8575" x2="1416.785" y2="302.8568">
	<stop  offset="0" style="stop-color:#4C5B96"/>
	<stop  offset="1" style="stop-color:#19345A"/>
</linearGradient>
<path class="st14" d="M1425.8,134c10.4,0,28.5,1.3,42.8,3.8l3.4,0.6l3.3-26.9l-2.9-0.7c-13.1-3-32.5-5.1-47.4-5.1
	c-44.8,0-66.6,18.9-66.6,57.7v81.6c0,38.8,21.8,57.7,66.6,57.7c14.8,0,34.3-2.1,47.4-5.1l2.9-0.7l-3.3-26.9l-3.4,0.6
	c-14.3,2.5-32.3,3.8-42.8,3.8c-28.7,0-37-6.9-37-30.9v-78.9C1388.8,141,1397.1,134,1425.8,134z"/>
<linearGradient id="SVGID_27_" gradientUnits="userSpaceOnUse" x1="1566.8395" y1="105.8575" x2="1566.8395" y2="302.8568">
	<stop  offset="0" style="stop-color:#4C5B96"/>
	<stop  offset="1" style="stop-color:#19345A"/>
</linearGradient>
<path class="st15" d="M1566.8,105.9c-43.9,0-70.2,22.2-70.2,59.3v78.3c0,37.2,26.2,59.3,70.2,59.3c43.9,0,70.2-22.2,70.2-59.3v-78.3
	C1637,128,1610.8,105.9,1566.8,105.9L1566.8,105.9z M1527.1,165.8L1527.1,165.8c0-21.4,13.4-32.3,39.8-32.3
	c26.4,0,39.8,10.9,39.8,32.3V243c0,21.4-13.4,32.3-39.8,32.3c-26.4,0-39.8-10.9-39.8-32.3V165.8z"/>
<linearGradient id="SVGID_28_" gradientUnits="userSpaceOnUse" x1="1783.9879" y1="108.632" x2="1783.9879" y2="300.0823">
	<stop  offset="0" style="stop-color:#4C5B96"/>
	<stop  offset="1" style="stop-color:#19345A"/>
</linearGradient>
<polygon class="st16" points="1713.5,136.5 1768.8,136.5 1768.8,300.1 1799.2,300.1 1799.2,136.5 1854.4,136.5 1854.4,108.6 
	1713.5,108.6 "/>
<linearGradient id="SVGID_29_" gradientUnits="userSpaceOnUse" x1="1937.2629" y1="105.8575" x2="1937.2629" y2="302.8568">
	<stop  offset="0" style="stop-color:#4C5B96"/>
	<stop  offset="1" style="stop-color:#19345A"/>
</linearGradient>
<path class="st17" d="M1937.3,105.9c-43.9,0-70.2,22.2-70.2,59.3v78.3c0,37.2,26.2,59.3,70.2,59.3c43.9,0,70.2-22.2,70.2-59.3v-78.3
	C2007.4,128,1981.2,105.9,1937.3,105.9L1937.3,105.9z M1897.5,165.8L1897.5,165.8c0-21.4,13.4-32.3,39.8-32.3
	c26.4,0,39.8,10.9,39.8,32.3V243c0,21.4-13.4,32.3-39.8,32.3c-26.4,0-39.8-10.9-39.8-32.3V165.8z"/>
<linearGradient id="SVGID_30_" gradientUnits="userSpaceOnUse" x1="2102.625" y1="108.632" x2="2102.625" y2="300.0823">
	<stop  offset="0" style="stop-color:#4C5B96"/>
	<stop  offset="1" style="stop-color:#19345A"/>
</linearGradient>
<polygon class="st18" points="2165.7,133.4 2165.7,108.6 2039.3,108.6 2039.3,135.7 2130,135.7 2037.6,275.3 2037.6,300.1 
	2167.7,300.1 2167.7,273 2073,273 "/>
<linearGradient id="SVGID_31_" gradientUnits="userSpaceOnUse" x1="2262.8452" y1="108.632" x2="2262.8452" y2="300.0823">
	<stop  offset="0" style="stop-color:#4C5B96"/>
	<stop  offset="1" style="stop-color:#19345A"/>
</linearGradient>
<polygon class="st19" points="2325.9,133.4 2325.9,108.6 2199.5,108.6 2199.5,135.7 2290.2,135.7 2197.8,275.3 2197.8,300.1 
	2327.9,300.1 2327.9,273 2233.2,273 "/>
<linearGradient id="SVGID_32_" gradientUnits="userSpaceOnUse" x1="2425.4224" y1="105.8575" x2="2425.4224" y2="302.8568">
	<stop  offset="0" style="stop-color:#4C5B96"/>
	<stop  offset="1" style="stop-color:#19345A"/>
</linearGradient>
<path class="st20" d="M2425.4,105.9c-44,0-70.2,22.2-70.2,59.3v78.3c0,37.2,26.2,59.3,70.2,59.3c43.9,0,70.2-22.2,70.2-59.3v-78.3
	C2495.6,128,2469.4,105.9,2425.4,105.9L2425.4,105.9z M2385.6,165.8L2385.6,165.8c0-21.4,13.4-32.3,39.8-32.3
	c26.4,0,39.8,10.9,39.8,32.3V243c0,21.4-13.4,32.3-39.8,32.3c-26.4,0-39.8-10.9-39.8-32.3V165.8z"/>
<path class="st21" d="M935.7,350c13.4,0,17.5,7,17.5,15.7V389c0,8.7-4.2,15.7-17.5,15.7h-19.1V350H935.7L935.7,350z M923.7,398.3
	L923.7,398.3h11.8c8.3,0,10.7-3.4,10.7-9.8v-22.3c0-6.4-2.5-9.8-10.7-9.8h-11.8V398.3z"/>
<rect x="975.2" y="350" class="st21" width="7.1" height="54.6"/>
<path class="st21" d="M1020.1,405.4c-5.2,0-11.6-1-16.2-2.9l1.1-5.7c5,1.6,10.2,2.4,15.2,2.4c8.8,0,10.6-2.3,10.6-8.5
	c0-7.4-0.1-8-11.3-10.6c-13.2-2.9-14.8-5.5-14.8-16.8c0-9.5,3.9-14.1,17.5-14.1c4.8,0,10.4,0.7,14.8,1.8l-0.6,6
	c-4.3-1-9.5-1.6-14-1.6c-8.9,0-10.6,1.8-10.6,8.1c0,7.5,0,7.9,10.8,10.6c14.5,3.6,15.3,5.7,15.3,16.4
	C1037.9,400,1035.1,405.4,1020.1,405.4z"/>
<polygon class="st21" points="1070.4,356.3 1054.1,356.3 1054.1,350 1093.8,350 1093.8,356.3 1077.4,356.3 1077.4,404.6 
	1070.4,404.6 "/>
<path class="st21" d="M1132,384.9h-13.4v19.8h-7.1V350h20.8c11.7,0,15.8,5.1,15.8,13.5v7.9c0,6.5-2.4,10.9-8.7,12.7l14.2,20.6h-8.1
	L1132,384.9L1132,384.9z M1132.2,356.3L1132.2,356.3h-13.5v22.3h13.5c6.7,0,9-1.9,9-7.2v-7.9
	C1141.2,358.1,1138.9,356.3,1132.2,356.3z"/>
<rect x="1173.1" y="350" class="st21" width="7.1" height="54.6"/>
<path class="st21" d="M1203.8,404.6V350h21.1c8.6,0,12.9,3.9,12.9,11.1v6.3c0,4.2-1.4,7.3-6.2,9.1c4.8,0.8,8,4,8,9.8v6.6
	c0,7.6-5.3,11.7-13.5,11.7H1203.8L1203.8,404.6z M1230.7,361.3L1230.7,361.3c0-3.5-2-5.2-6.2-5.2h-13.6v17.7h12.5
	c5.3,0,7.4-2.5,7.4-6.4V361.3L1230.7,361.3z M1232.5,386.6L1232.5,386.6c0-4.3-2.5-6.7-7.9-6.7h-13.8v18.7h14.2c5,0,7.5-2.1,7.5-6.2
	V386.6z"/>
<path class="st21" d="M1298.1,350v39.3c0,8.9-5.2,16.2-19.3,16.2c-14.2,0-19.4-7.2-19.4-16.2V350h7.1v38.9c0,6.7,3.7,10.2,12.3,10.2
	c8.6,0,12.3-3.5,12.3-10.2V350H1298.1z"/>
<rect x="1321.3" y="350" class="st21" width="7.1" height="54.6"/>
<path class="st21" d="M1371.1,350c13.4,0,17.5,7,17.5,15.7V389c0,8.7-4.2,15.7-17.5,15.7H1352V350H1371.1L1371.1,350z M1359,398.3
	L1359,398.3h11.8c8.3,0,10.7-3.4,10.7-9.8v-22.3c0-6.4-2.5-9.8-10.7-9.8H1359V398.3z"/>
<path class="st21" d="M1448.5,388.9c0,9.1-5.7,16.6-19.8,16.6c-14.1,0-19.8-7.5-19.8-16.6v-23.1c0-9.1,5.7-16.6,19.8-16.6
	c14.1,0,19.8,7.5,19.8,16.6V388.9L1448.5,388.9z M1416,388.7L1416,388.7c0,6.7,4.1,10.5,12.7,10.5c8.6,0,12.7-3.8,12.7-10.5v-22.8
	c0-6.7-4.1-10.5-12.7-10.5c-8.6,0-12.7,3.8-12.7,10.5V388.7z"/>
<path class="st21" d="M1490.8,384.9h-13.4v19.8h-7.1V350h20.8c11.7,0,15.8,5.1,15.8,13.5v7.9c0,6.5-2.4,10.9-8.7,12.7l14.2,20.6
	h-8.1L1490.8,384.9L1490.8,384.9z M1491,356.3L1491,356.3h-13.5v22.3h13.5c6.7,0,9-1.9,9-7.2v-7.9
	C1500,358.1,1497.7,356.3,1491,356.3z"/>
<path class="st21" d="M1600.1,404.6h-7.1l-4.5-13.1h-23.2l-4.4,13.1h-7.1l18.4-54.6h9.5L1600.1,404.6L1600.1,404.6z M1576.9,355.1
	L1576.9,355.1l-9.8,30.3h19.5L1576.9,355.1z"/>
<polygon class="st21" points="1625.1,356.3 1608.8,356.3 1608.8,350 1648.5,350 1648.5,356.3 1632.1,356.3 1632.1,404.6 
	1625.1,404.6 "/>
<path class="st21" d="M1703.6,404.6h-7.1l-4.5-13.1h-23.2l-4.4,13.1h-7.1l18.4-54.6h9.5L1703.6,404.6L1703.6,404.6z M1680.3,355.1
	L1680.3,355.1l-9.8,30.3h19.5L1680.3,355.1z"/>
<path class="st21" d="M1727.3,389c0,7.6,2.9,10.1,11.9,10.1c3.3,0,8.6-0.4,12.8-1.1l0.7,6.1c-3.9,0.9-9.7,1.5-13.8,1.5
	c-13.4,0-18.7-5.7-18.7-16.1v-24.1c0-10.3,5.3-16.1,18.7-16.1c4.1,0,9.8,0.6,13.8,1.5l-0.7,6.1c-4.2-0.7-9.5-1.1-12.8-1.1
	c-8.9,0-11.9,2.5-11.9,10.1V389z"/>
<path class="st21" d="M1815.8,404.6h-7.1l-4.5-13.1h-23.2l-4.4,13.1h-7.1l18.4-54.6h9.5L1815.8,404.6L1815.8,404.6z M1792.6,355.1
	L1792.6,355.1l-9.8,30.3h19.5L1792.6,355.1z"/>
<path class="st21" d="M1853.4,350c13.4,0,17.6,7,17.6,15.7V389c0,8.7-4.2,15.7-17.6,15.7h-19.1V350H1853.4L1853.4,350z
	 M1841.3,398.3L1841.3,398.3h11.8c8.3,0,10.7-3.4,10.7-9.8v-22.3c0-6.4-2.5-9.8-10.7-9.8h-11.8V398.3z"/>
<rect x="1892.9" y="350" class="st21" width="7.1" height="54.6"/>
<path class="st21" d="M1937.7,405.4c-5.2,0-11.6-1-16.2-2.9l1.1-5.7c5,1.6,10.3,2.4,15.3,2.4c8.8,0,10.6-2.3,10.6-8.5
	c0-7.4-0.1-8-11.3-10.6c-13.2-2.9-14.8-5.5-14.8-16.8c0-9.5,3.9-14.1,17.5-14.1c4.8,0,10.4,0.7,14.8,1.8l-0.6,6
	c-4.3-1-9.5-1.6-14-1.6c-8.9,0-10.6,1.8-10.6,8.1c0,7.5,0,7.9,10.8,10.6c14.5,3.6,15.3,5.7,15.3,16.4
	C1955.5,400,1952.7,405.4,1937.7,405.4z"/>
<polygon class="st21" points="1988.1,356.3 1971.8,356.3 1971.8,350 2011.4,350 2011.4,356.3 1995.1,356.3 1995.1,404.6 
	1988.1,404.6 "/>
<path class="st21" d="M2066.5,404.6h-7.1l-4.5-13.1h-23.2l-4.4,13.1h-7.1l18.4-54.6h9.5L2066.5,404.6L2066.5,404.6z M2043.3,355.1
	L2043.3,355.1l-9.8,30.3h19.5L2043.3,355.1z"/>
</svg>
