<!-- Generated by IcoMoon.io -->
<svg version="1.1" xmlns="http://www.w3.org/2000/svg" width="46" height="64" viewBox="0 0 23 32">
<path fill="#327ead" d="M11.411 0.124c-6.158 0-11.163 5.067-11.163 11.225 0 2.195 0.633 4.316 1.842 6.14l9.321 14.388 9.321-14.388c1.209-1.823 1.842-3.944 1.842-6.14 0-6.158-5.005-11.225-11.163-11.225v0zM11.411 16.93c-3.070 0-5.581-2.512-5.581-5.581s2.512-5.643 5.581-5.643 5.581 2.574 5.581 5.643-2.512 5.581-5.581 5.581v0z"></path>
<path fill="#274980" d="M22.574 11.349c0 2.195-0.633 4.316-1.842 6.14l-9.321 14.388v-14.946c3.070 0 5.581-2.512 5.581-5.581s-2.512-5.643-5.581-5.643v-5.581c6.158 0 11.163 5.067 11.163 11.225v0z"></path>
<path fill="#000" d="M16.174 11.38c0 2.62-2.124 4.744-4.744 4.744s-4.744-2.124-4.744-4.744c0-2.62 2.124-4.744 4.744-4.744s4.744 2.124 4.744 4.744z"></path>
<path fill="#3a5086" d="M6.772 10.487h3.367v-1.495h-2.809c-0.267 0.459-0.459 0.961-0.558 1.495z"></path>
<path fill="#3a5086" d="M16.087 12.273h-3.436v1.495h2.878c0.267-0.453 0.459-0.961 0.558-1.495z"></path>
<path fill="#88c4e2" d="M6.772 10.487h3.367v-1.495h-2.809c-0.267 0.459-0.459 0.961-0.558 1.495z"></path>
<path fill="#88c4e2" d="M16.087 12.273h-3.436v1.495h2.878c0.267-0.453 0.459-0.961 0.558-1.495z"></path>
<path fill="#fff" d="M13.098 12.812l-0.831-1.371-0.93-1.612c0 0-0.465-0.837-1.315-0.837h-1.712c0.316 0 0.998 0.329 1.346 0.955l0.825 1.371 0.924 1.612c0 0 0.434 0.781 1.234 0.837-0.012 0-0.025 0-0.037 0h1.848c-0.316 0-1.005-0.329-1.352-0.955z"></path>
<path fill="#fff" d="M11.653 9.829l0.217 0.378h2.282l-0.205-0.546c0 0-0.223-0.664-0.905-0.664h-2.295c0.546 0.174 0.905 0.831 0.905 0.831z"></path>
</svg>
